<?xml version="1.0" encoding="utf-8"?><svg xmlns="http://www.w3.org/2000/svg" xmlns:xlink="http://www.w3.org/1999/xlink"><symbol viewBox="0 0 24 24" id="adv-1" xmlns="http://www.w3.org/2000/svg"><path d="M7.781 0C6.651 0 3.386.052 2.92 2.86h9.723C12.176.051 8.91 0 7.78 0Zm9.141 23.297V18.06l5.236-2.618a.703.703 0 0 0 0-1.258l-5.625-2.813a.702.702 0 0 0-1.017.629v11.297a.703.703 0 1 0 1.406 0ZM13.138 4.266H2.425L1.527 6.06a.702.702 0 0 0 .63 1.017h11.25a.703.703 0 0 0 .628-1.017l-.897-1.795Zm-.435 6.328v-2.11H2.86v2.11a3.521 3.521 0 0 0 2.813 3.444v1.478h-.327l2.436 3.654 2.437-3.654H9.89v-1.478a3.521 3.521 0 0 0 2.812-3.444ZM6.375 21.14h2.813V24H6.375v-2.86Zm-4.922-2.11v4.266c0 .389.315.703.703.703H4.97v-3.563c0-.388.314-.703.703-.703h.796l-2.67-4.003c-1.361.485-2.345 1.774-2.345 3.3Zm10.311-3.3-2.669 4.003h.796c.388 0 .703.315.703.703V24h2.812a.703.703 0 0 0 .704-.703V19.03c0-1.526-.984-2.815-2.346-3.3Z"/></symbol><symbol viewBox="0 0 24 24" id="adv-2" xmlns="http://www.w3.org/2000/svg"><path d="M15.39 0H8.61a2.59 2.59 0 0 0-2.393 1.606h11.564A2.59 2.59 0 0 0 15.389 0Zm3.012 3.013H5.599a2.589 2.589 0 0 0-2.586 2.585v17.699c0 .388.314.703.703.703h4.568v-3.339a2.589 2.589 0 0 1 2.586-2.586h2.26a2.589 2.589 0 0 1 2.586 2.586V24h4.569a.703.703 0 0 0 .703-.703V5.598a2.589 2.589 0 0 0-2.586-2.585ZM7.979 16.263a.708.708 0 0 1-.498.206.706.706 0 0 1-.497-1.2.707.707 0 0 1 .497-.207.707.707 0 0 1 .497 1.2Zm0-3.013a.707.707 0 0 1-.498.206.707.707 0 0 1-.703-.703.707.707 0 0 1 .703-.703.71.71 0 0 1 .498.206.708.708 0 0 1 0 .994Zm0-3.012a.71.71 0 0 1-.498.206.706.706 0 0 1-.497-1.2.708.708 0 0 1 .497-.207c.185 0 .366.075.498.206a.708.708 0 0 1 0 .995Zm0-3.013a.708.708 0 0 1-.498.206.71.71 0 0 1-.497-.206.707.707 0 0 1 .497-1.2.707.707 0 0 1 .703.703.708.708 0 0 1-.205.497Zm3.012 9.038a.708.708 0 0 1-.497.206.708.708 0 0 1-.497-.206.708.708 0 0 1-.206-.498c0-.185.075-.366.206-.496a.708.708 0 0 1 .497-.207.708.708 0 0 1 .703.704.707.707 0 0 1-.206.497Zm0-3.013a.708.708 0 0 1-.497.206.708.708 0 0 1-.497-.206.709.709 0 0 1-.206-.497c0-.185.075-.366.206-.497a.71.71 0 0 1 .497-.206.71.71 0 0 1 .497.206.708.708 0 0 1 0 .994Zm0-3.012a.71.71 0 0 1-.497.206.71.71 0 0 1-.497-.206.708.708 0 0 1-.206-.497c0-.186.075-.367.206-.498a.71.71 0 0 1 .497-.206.71.71 0 0 1 .497.206.708.708 0 0 1 0 .995Zm0-3.013a.71.71 0 0 1-.497.206.708.708 0 0 1-.497-.206.709.709 0 0 1-.206-.497.708.708 0 0 1 .703-.703.707.707 0 0 1 .703.703.71.71 0 0 1-.206.497Zm3.012 9.038a.708.708 0 0 1-.497.206.708.708 0 0 1-.497-.206.707.707 0 0 1 .497-1.2.706.706 0 0 1 .704.703.707.707 0 0 1-.207.497Zm0-3.013a.707.707 0 0 1-.497.206.707.707 0 0 1-.703-.703c0-.185.075-.366.206-.497a.708.708 0 0 1 .497-.206.707.707 0 0 1 .704.703.707.707 0 0 1-.207.497Zm-1.2-3.51c0-.185.075-.366.206-.497a.709.709 0 0 1 .498-.206.71.71 0 0 1 .497.206.708.708 0 0 1 0 .995.709.709 0 0 1-.497.206.709.709 0 0 1-.498-.206.708.708 0 0 1-.206-.497Zm1.2-2.515a.707.707 0 0 1-.994 0 .707.707 0 0 1 .497-1.2.706.706 0 0 1 .704.703.709.709 0 0 1-.207.497Zm3.013 9.038a.708.708 0 0 1-.497.206.707.707 0 0 1-.703-.703.707.707 0 0 1 .703-.704.707.707 0 0 1 .497 1.2Zm0-3.013a.706.706 0 0 1-1.2-.497.707.707 0 0 1 .703-.703.707.707 0 0 1 .703.703.708.708 0 0 1-.206.497Zm0-3.012a.71.71 0 0 1-.497.206.706.706 0 0 1-.497-1.2.708.708 0 0 1 .497-.207.71.71 0 0 1 .497.206.708.708 0 0 1 0 .995Zm0-3.013a.707.707 0 0 1-1.2-.497.706.706 0 0 1 .703-.703.707.707 0 0 1 .703.703.708.708 0 0 1-.206.497Z"/><path d="M13.13 19.481h-.427V24h1.607v-3.34c0-.65-.53-1.179-1.18-1.179Zm-3.44 1.18V24h1.607v-4.519h-.427c-.65 0-1.18.53-1.18 1.18Z"/></symbol><symbol viewBox="0 0 22 24" id="basket" xmlns="http://www.w3.org/2000/svg"><g clip-path="url(#ca)"><path d="M10.363 18.443a2.046 2.046 0 0 0-2.045 2.042 2.046 2.046 0 0 0 4.09 0 2.046 2.046 0 0 0-2.045-2.042Zm6.134 0a2.046 2.046 0 0 0-2.045 2.042 2.046 2.046 0 0 0 4.089 0 2.046 2.046 0 0 0-2.044-2.042Zm3.978-8.199L7.413 6.891a.614.614 0 0 0-.75.73L8.67 16.4h-.786L5.482 5.895a.613.613 0 0 0-.474-.464l-4.27-.882A.614.614 0 0 0 .489 5.75l3.885.802L6.797 17.15a.613.613 0 0 0 .598.477h12.07a.615.615 0 0 0 .607-.53l.858-6.175a.613.613 0 0 0-.455-.678Zm-8.14 3.91a.613.613 0 0 1-1.227 0v-2.696a.613.613 0 0 1 1.227 0v2.696Zm2.625 0a.613.613 0 0 1-1.227 0v-1.88a.613.613 0 0 1 1.227 0v1.88Zm2.625 0a.613.613 0 0 1-1.227 0v-1.226a.613.613 0 0 1 1.227 0v1.226Z"/></g><path fill-rule="evenodd" clip-rule="evenodd" d="M16.268 4.568a2.996 2.996 0 0 0-1.693-.523c-.627 0-1.21.193-1.693.523-.28-.843-.492-1.752-.492-2.383C12.39.98 13.37 0 14.575 0s2.185.98 2.185 2.185c0 .631-.212 1.54-.492 2.383Zm-4.722 2.274.024.006v-.011l-.024.005Zm4.972 1.217c-1.333-.33-2.766-.681-4.129-1.013a2.185 2.185 0 1 1 4.129 1.013Zm4.436 1.103c-.866-.217-2.155-.538-3.618-.9a2.995 2.995 0 0 0 .243-1.425c.87.18 1.762.45 2.308.765.596.344.969.928 1.067 1.56ZM9.869 6.439c-.36-.086-.706-.167-1.03-.243a2.19 2.19 0 0 1-.376-2.667 2.188 2.188 0 0 1 3.147-.7c.098.738.338 1.599.61 2.353a3.01 3.01 0 0 0-.449.774c-.628.113-1.305.278-1.902.483Zm10.124.075a3.43 3.43 0 0 1-.217.114c-.696-.295-1.587-.526-2.397-.672a3.01 3.01 0 0 0-.449-.774c.262-.727.494-1.553.599-2.273.095-.067.189-.128.278-.18a2.188 2.188 0 0 1 2.986.8 2.188 2.188 0 0 1-.8 2.985Z"/><defs><clipPath id="ca"><path transform="translate(0 3.064)" d="M0 0h20.936v20.936H0z"/></clipPath></defs></symbol><symbol viewBox="0 0 32 32" id="book" xmlns="http://www.w3.org/2000/svg"><g clip-path="url(#da)"><path d="M4.895 3.776h-.003a1.129 1.129 0 0 0-.802.333 1.14 1.14 0 0 0-.337.812v17.171c0 .63.514 1.143 1.147 1.145 2.665.006 7.13.562 10.211 3.786V9.053c0-.213-.054-.414-.157-.58-2.529-4.072-7.388-4.69-10.059-4.697Zm23.352 18.316V4.922a1.14 1.14 0 0 0-1.14-1.146h-.002c-2.671.007-7.53.625-10.059 4.697a1.097 1.097 0 0 0-.157.58v17.97c3.08-3.224 7.546-3.78 10.212-3.786a1.149 1.149 0 0 0 1.146-1.145Z"/><path d="M30.855 7.736h-.83v14.356a2.93 2.93 0 0 1-2.92 2.923c-2.261.005-5.989.447-8.629 2.946 4.566-1.118 9.38-.391 12.123.234A1.143 1.143 0 0 0 32 27.079V8.881c0-.631-.514-1.145-1.145-1.145ZM1.975 22.092V7.736h-.83C.514 7.736 0 8.25 0 8.881V27.08a1.138 1.138 0 0 0 .89 1.116c.169.039.343.038.511 0 2.743-.626 7.557-1.352 12.123-.234-2.64-2.499-6.368-2.941-8.629-2.946a2.93 2.93 0 0 1-2.92-2.923Z"/></g><defs><clipPath id="da"><path d="M0 0h32v32H0z"/></clipPath></defs></symbol><symbol viewBox="0 0 32 32" id="bus" xmlns="http://www.w3.org/2000/svg"><path d="m28.777 7.595-1.27-1.271a.761.761 0 0 0-.538-.223h-.972A3.306 3.306 0 0 0 22.703 3H9.297a3.306 3.306 0 0 0-3.294 3.1h-.972a.76.76 0 0 0-.538.224l-1.27 1.27a.762.762 0 0 0-.223.54v3.812a.762.762 0 1 0 1.523 0V8.45l.824-.824h.65v9.194c3.153.625 16.942.608 20.007 0V7.626h.65l.823.824v3.496a.762.762 0 1 0 1.523 0V8.134a.763.763 0 0 0-.223-.54ZM6.859 27.42v.31c0 .7.57 1.27 1.27 1.27h2.387c.7 0 1.27-.57 1.27-1.27v-.28c-4.764-.01-4.574.023-4.927-.03Zm13.356.03v.28c0 .7.57 1.27 1.27 1.27h2.386c.7 0 1.27-.57 1.27-1.27v-.31c-.353.052-.163.02-4.926.03ZM5.996 18.369v2.82l4.802.833a.761.761 0 0 1 .596.52l1.078 3.383h7.056l1.079-3.384a.762.762 0 0 1 .595-.519l4.802-.833v-2.82c-3.669.586-16.337.586-20.008 0Zm12.29 3.743h-4.571a.762.762 0 0 1 0-1.524h4.57a.762.762 0 0 1 0 1.524Z"/><path d="M21.125 26h3.606c.7 0 1.269-.536 1.269-1.196V23l-4.085.667-.79 2.333Zm-10.25 0-.79-2.333L6 23v1.804C6 25.464 6.57 26 7.269 26h3.606Z"/></symbol><symbol viewBox="0 0 344.96 344.96" id="check" xmlns="http://www.w3.org/2000/svg"><g data-name="Слой 2"><path class="fcls-1" d="m321.85 86.24-40-23.11-23.1-40H212.5L172.48 0l-40 23.11H86.24l-23.11 40-40 23.1v46.21L0 172.48l23.11 40v46.21l40 23.11 23.11 40h46.21l40 23.1 40-23.11h46.21l23.11-40 40-23.11V212.5l23.11-40-23.11-40V86.24ZM156.91 243.07a16.79 16.79 0 0 1-23.34 0l-50.45-50.44a16.19 16.19 0 0 1 0-22.89l13.35-13.35a16.19 16.19 0 0 1 22.89 0l25.87 25.87 80.34-80.35a16.19 16.19 0 0 1 22.89 0l13.35 13.35a16.19 16.19 0 0 1 0 22.89Z" data-name="Capa 1"/></g></symbol><symbol viewBox="0 0 67 15" id="chevron-left" xmlns="http://www.w3.org/2000/svg"><g clip-path="url(#ga)"><path d="M.854 8.254h65.292a.758.758 0 1 0 0-1.518H2.687L7.293 2.13A.76.76 0 0 0 6.22 1.056L.315 6.959a.756.756 0 0 0-.163.828.763.763 0 0 0 .702.467Z"/><path d="M6.764 14.165a.76.76 0 0 0 .536-1.297L1.39 6.956A.76.76 0 0 0 .315 8.03l5.91 5.91a.76.76 0 0 0 .54.224Z"/></g><defs><clipPath id="ga"><path transform="matrix(-1 0 0 1 67 0)" d="M0 0h67v15H0z"/></clipPath></defs></symbol><symbol viewBox="0 0 67 15" id="chevron-right" xmlns="http://www.w3.org/2000/svg"><g clip-path="url(#ha)"><path d="M66.146 8.254H.854a.758.758 0 1 1 0-1.518h63.459L59.707 2.13a.76.76 0 0 1 1.074-1.074l5.904 5.903a.756.756 0 0 1 .163.828.763.763 0 0 1-.702.467Z"/><path d="M60.236 14.165a.76.76 0 0 1-.536-1.297l5.91-5.911a.76.76 0 0 1 1.075 1.074l-5.91 5.91a.758.758 0 0 1-.54.224Z"/></g><defs><clipPath id="ha"><path d="M0 0h67v15H0z"/></clipPath></defs></symbol><symbol viewBox="0 0 24 24" id="clock" xmlns="http://www.w3.org/2000/svg"><path d="M12 2C6.5 2 2 6.5 2 12s4.5 10 10 10 10-4.5 10-10S17.5 2 12 2Zm3.5 12c-.3.5-.9.6-1.4.4l-2.6-1.5c-.3-.2-.5-.5-.5-.9V7c0-.6.4-1 1-1s1 .4 1 1v4.4l2.1 1.2c.5.3.6.9.4 1.4Z"/></symbol><symbol viewBox="0 0 86 86" id="delivery" xmlns="http://www.w3.org/2000/svg"><path d="M70.896 57.781 67.04 44.344h-9.26v12.094a6.719 6.719 0 0 1-6.718 6.718h-6.72c-.214-1.343.982-5.993-3.144-9.688a4.703 4.703 0 0 0 3.145-4.421 4.636 4.636 0 0 0-.47-2.016h2.069l2.875 13.438h2.245a4.031 4.031 0 0 0 4.03-4.031V51.25l-1.948-9.097a4.031 4.031 0 0 0-3.937-3.185h-3.776a147.544 147.544 0 0 1 3.843-6.611l2.177 2.19c.188.186.426.312.686.363l5.643 1.128v5.617h10.75a4.031 4.031 0 0 0 4.031-4.03v-8.063a4.031 4.031 0 0 0-4.03-4.032h-9.407a1.344 1.344 0 0 0-1.344 1.344v.806l-2.284-.51a82.974 82.974 0 0 0-6.383-6.208 6.1 6.1 0 0 0-5.456-.31 28.073 28.073 0 0 0-9.312 6.531 30.531 30.531 0 0 0-6.288 10.925 6.717 6.717 0 0 0 .846 6.087l.134.148H15.453a4.69 4.69 0 0 0-2.244 8.815A17.468 17.468 0 0 0 4.031 68.53a1.344 1.344 0 0 0 1.344 1.344h2.688a12.094 12.094 0 1 0 24.187 0h25.531A12.094 12.094 0 1 0 70.896 57.78Zm-50.74 21.5a9.406 9.406 0 1 1 0-18.812 9.406 9.406 0 0 1 0 18.812Zm49.719 0a9.406 9.406 0 1 1 0-18.811 9.406 9.406 0 0 1 0 18.811Z"/><path d="M69.875 75.25a5.375 5.375 0 1 0 0-10.75 5.375 5.375 0 0 0 0 10.75Zm-49.719 0a5.375 5.375 0 1 0 0-10.75 5.375 5.375 0 0 0 0 10.75Zm5.375-48.375a1.344 1.344 0 0 0-1.343-1.344H5.375a1.344 1.344 0 0 0-1.344 1.344v14.781h21.5V26.875Zm41.657-15.453a7.404 7.404 0 0 0-7.391-7.39h-4.031a7.404 7.404 0 0 0-7.391 7.323v3.265a9.406 9.406 0 0 0 8.063 9.299V13.437a1.344 1.344 0 0 1 1.343-1.343h9.407v-.672Z"/><path d="M59.125 23.126a7.51 7.51 0 0 0 6.974-8.345h-6.974v8.345Z"/></symbol><symbol viewBox="0 0 24 24" id="email" xmlns="http://www.w3.org/2000/svg"><path d="M20 4H4c-1.1 0-1.99.9-1.99 2L2 18c0 1.1.9 2 2 2h16c1.1 0 2-.9 2-2V6c0-1.1-.9-2-2-2Zm0 4-8 5-8-5V6l8 5 8-5v2Z"/></symbol><symbol viewBox="0 0 24 24" id="fb" xmlns="http://www.w3.org/2000/svg"><path d="M13.397 20.997v-8.196h2.765l.411-3.209h-3.176V7.548c0-.926.258-1.56 1.587-1.56h1.684v-2.86A22.108 22.108 0 0 0 14.201 3c-2.444 0-4.122 1.492-4.122 4.231v2.355H7.332v3.21h2.753v8.201h3.312Z"/></symbol><symbol viewBox="0 0 30 30" id="holiday" xmlns="http://www.w3.org/2000/svg"><path d="M6.426 12.654 3.548 20.33a13.84 13.84 0 0 0 4.444 7.178l3.61-1.354a15.823 15.823 0 0 1-5.176-13.5ZM2.574 22.929.368 28.81c-.264.702.424 1.397 1.132 1.13l4.653-1.744a15.767 15.767 0 0 1-3.579-5.268Z"/><path d="m12.596 11.938-3.28-3.28a14.036 14.036 0 0 0 4.176 16.787l3.502-1.313a15.864 15.864 0 0 1-4.398-12.194Zm1.716 1.716a14.032 14.032 0 0 0 4.507 9.793l2.567-.962a.88.88 0 0 0 .312-1.445l-7.386-7.386Zm6.419 2.76c.343.344.9.344 1.243 0 3.306-3.305 6.526-2.283 6.558-2.273a.879.879 0 1 0 .556-1.667c-.174-.058-4.291-1.368-8.357 2.698a.879.879 0 0 0 0 1.243ZM15.138 9.58c4.066-4.066 2.755-8.183 2.698-8.357a.879.879 0 0 0-1.667.556c.01.032 1.033 3.252-2.274 6.558a.88.88 0 0 0 1.243 1.243Zm1.864 1.864a.879.879 0 0 0 1.238 1.248c.454-.226 1.863.623 2.646-.16.775-.775-.048-2.155.158-2.64.484-.205 1.864.618 2.639-.157.775-.774-.049-2.155.157-2.639.485-.206 1.864.618 2.64-.157.774-.775-.049-2.155.157-2.64.482-.204 1.865.617 2.639-.157.783-.783-.064-2.194.16-2.646A.879.879 0 0 0 28.188.257c-.692.693-.557 1.671-.426 2.37-.7-.13-1.678-.266-2.37.427-.693.693-.557 1.67-.427 2.37-.699-.13-1.677-.266-2.37.426-.692.693-.557 1.671-.426 2.37-.7-.13-1.678-.266-2.37.427-.693.693-.557 1.67-.427 2.37-.7-.13-1.677-.266-2.37.426Zm4.972-7.457a.879.879 0 1 0-1.243-1.243.879.879 0 0 0 1.243 1.243Zm5.592 6.471a.879.879 0 1 0 0-1.758.879.879 0 0 0 0 1.758Zm-1.863 7.2a.879.879 0 1 0 1.242 1.243.879.879 0 0 0-1.242-1.243ZM13.273 5.229a.879.879 0 1 0-1.242-1.243.879.879 0 0 0 1.243 1.243Z"/></symbol><symbol viewBox="0 0 24 24" id="instagram" xmlns="http://www.w3.org/2000/svg"><path d="M11.999 7.377a4.624 4.624 0 1 0 0 9.248 4.624 4.624 0 0 0 0-9.248Zm0 7.627a3.004 3.004 0 1 1 0-6.008 3.004 3.004 0 0 1 0 6.008Zm4.807-6.719a1.078 1.078 0 1 0 0-2.156 1.078 1.078 0 0 0 0 2.156Z"/><path d="M20.533 6.11A4.605 4.605 0 0 0 17.9 3.48a6.607 6.607 0 0 0-2.186-.42c-.963-.042-1.268-.054-3.71-.054s-2.755 0-3.71.054a6.554 6.554 0 0 0-2.184.42 4.6 4.6 0 0 0-2.633 2.63 6.585 6.585 0 0 0-.419 2.186c-.043.962-.056 1.267-.056 3.71 0 2.442 0 2.753.056 3.71.015.748.156 1.486.419 2.187a4.61 4.61 0 0 0 2.634 2.632 6.583 6.583 0 0 0 2.185.45c.963.042 1.268.055 3.71.055s2.755 0 3.71-.055a6.616 6.616 0 0 0 2.186-.42 4.613 4.613 0 0 0 2.633-2.632c.263-.7.404-1.438.419-2.186.043-.962.056-1.267.056-3.71s0-2.753-.056-3.71a6.583 6.583 0 0 0-.421-2.217Zm-1.218 9.533a5.046 5.046 0 0 1-.311 1.688 2.987 2.987 0 0 1-1.712 1.71c-.535.2-1.1.305-1.67.312-.95.044-1.218.055-3.654.055-2.438 0-2.687 0-3.655-.055a4.961 4.961 0 0 1-1.67-.311 2.984 2.984 0 0 1-1.718-1.711 5.08 5.08 0 0 1-.311-1.67c-.043-.95-.053-1.217-.053-3.653 0-2.437 0-2.686.053-3.655a5.038 5.038 0 0 1 .311-1.687c.305-.79.93-1.41 1.719-1.712a5.01 5.01 0 0 1 1.669-.311c.95-.043 1.218-.055 3.655-.055s2.687 0 3.654.055a4.96 4.96 0 0 1 1.67.31 2.99 2.99 0 0 1 1.712 1.713 5.06 5.06 0 0 1 .311 1.669c.043.95.054 1.218.054 3.655 0 2.436 0 2.698-.043 3.654h-.011v-.001Z"/></symbol><symbol viewBox="0 0 24 24" id="phone" xmlns="http://www.w3.org/2000/svg"><g clip-path="url(#oa)"><path fill-rule="evenodd" clip-rule="evenodd" d="M16.552 22.133c-1.44-.053-5.521-.617-9.795-4.89-4.273-4.274-4.836-8.354-4.89-9.795-.08-2.196 1.602-4.329 3.545-5.162a1.47 1.47 0 0 1 1.445.159c1.6 1.166 2.704 2.93 3.652 4.317a1.504 1.504 0 0 1-.256 1.986l-1.951 1.449a.48.48 0 0 0-.142.616c.442.803 1.228 1.999 2.128 2.899.901.9 2.153 1.738 3.012 2.23a.483.483 0 0 0 .644-.162l1.27-1.933a1.503 1.503 0 0 1 2.056-.332c1.407.974 3.049 2.059 4.251 3.598a1.47 1.47 0 0 1 .189 1.485c-.837 1.953-2.955 3.616-5.158 3.535Z"/></g><defs><clipPath id="oa"><path d="M0 0h24v24H0z"/></clipPath></defs></symbol><symbol viewBox="0 0 103 87" id="sale" xmlns="http://www.w3.org/2000/svg"><path d="m13.8 85.08 57.36-84h17.28l-57.36 84H13.8Zm7.68-38.52c-4.08 0-7.76-.92-11.04-2.76-3.28-1.84-5.84-4.48-7.68-7.92C.92 32.36 0 28.16 0 23.28s.92-9.04 2.76-12.48c1.84-3.44 4.4-6.08 7.68-7.92C13.72.96 17.4 0 21.48 0c4.16 0 7.84.96 11.04 2.88 3.28 1.84 5.84 4.48 7.68 7.92 1.92 3.44 2.88 7.6 2.88 12.48 0 4.8-.96 8.96-2.88 12.48-1.84 3.52-4.4 6.2-7.68 8.04-3.2 1.84-6.88 2.76-11.04 2.76Zm.12-11.4c2 0 3.64-.92 4.92-2.76 1.36-1.84 2.04-4.88 2.04-9.12 0-4.24-.68-7.28-2.04-9.12-1.28-1.84-2.92-2.76-4.92-2.76s-3.72.92-5.16 2.76c-1.36 1.84-2.04 4.88-2.04 9.12 0 4.24.68 7.28 2.04 9.12 1.44 1.84 3.16 2.76 5.16 2.76Zm59.16 51c-4.16 0-7.88-.92-11.16-2.76-3.2-1.84-5.72-4.48-7.56-7.92-1.84-3.52-2.76-7.72-2.76-12.6s.92-9.04 2.76-12.48c1.84-3.44 4.36-6.08 7.56-7.92 3.28-1.92 7-2.88 11.16-2.88s7.84.96 11.04 2.88c3.28 1.84 5.84 4.48 7.68 7.92 1.92 3.44 2.88 7.6 2.88 12.48 0 4.88-.96 9.08-2.88 12.6-1.84 3.44-4.4 6.08-7.68 7.92-3.2 1.84-6.88 2.76-11.04 2.76Zm0-11.4c2 0 3.68-.92 5.04-2.76 1.36-1.84 2.04-4.88 2.04-9.12 0-4.24-.68-7.28-2.04-9.12-1.36-1.84-3.04-2.76-5.04-2.76-1.92 0-3.6.92-5.04 2.76-1.36 1.84-2.04 4.88-2.04 9.12 0 4.24.68 7.28 2.04 9.12 1.44 1.84 3.12 2.76 5.04 2.76Z"/></symbol><symbol viewBox="0 0 24 24" id="search" xmlns="http://www.w3.org/2000/svg"><path d="M19.745 16.157c3.006-3.006 3.006-7.897 0-10.903-3.006-3.005-7.897-3.005-10.902 0-2.55 2.55-2.937 6.343-1.16 9.305 0 0 .127.214-.045.386l-3.933 3.933c-.783.783-.97 1.878-.275 2.573l.12.119c.694.694 1.788.508 2.571-.275l3.925-3.925c.18-.18.395-.053.395-.053 2.961 1.777 6.754 1.39 9.304-1.16Zm-9.48-1.423a5.703 5.703 0 0 1 0-8.056 5.703 5.703 0 0 1 8.057 0 5.703 5.703 0 0 1 0 8.056 5.703 5.703 0 0 1-8.056 0Z"/><path d="M10.758 10.248a.794.794 0 0 1-.732-1.106 5.015 5.015 0 0 1 6.565-2.66.796.796 0 0 1-.62 1.465 3.422 3.422 0 0 0-4.48 1.816.796.796 0 0 1-.732.485Z"/></symbol><symbol viewBox="0 0 32 32" id="star" xmlns="http://www.w3.org/2000/svg"><path fill-rule="evenodd" clip-rule="evenodd" d="M29.163 17.808c.373-.475.837-1.065.837-1.808 0-.743-.464-1.333-.837-1.808-.192-.243-.43-.546-.464-.718-.037-.19.065-.556.156-.88.168-.603.36-1.285.082-1.953-.281-.679-.905-1.029-1.456-1.338-.288-.161-.614-.344-.716-.496-.104-.155-.15-.53-.19-.86-.075-.624-.16-1.331-.675-1.846-.515-.515-1.222-.6-1.846-.676-.33-.04-.705-.086-.86-.19-.152-.101-.335-.428-.497-.716-.309-.55-.659-1.175-1.337-1.456-.668-.277-1.35-.086-1.953.082-.324.09-.691.193-.88.156-.173-.034-.476-.272-.72-.464C17.334 2.464 16.744 2 16 2c-.743 0-1.333.464-1.808.837-.243.192-.546.43-.718.464-.19.037-.557-.065-.88-.156-.603-.168-1.285-.36-1.953-.082-.679.281-1.029.905-1.338 1.456-.161.288-.344.614-.496.716-.155.104-.53.15-.86.19-.624.075-1.331.16-1.846.675-.515.515-.6 1.222-.676 1.846-.04.33-.086.705-.19.86-.101.152-.428.335-.716.497-.55.309-1.175.659-1.456 1.337-.277.668-.086 1.35.082 1.953.09.324.193.691.156.88-.034.173-.272.476-.464.72C2.464 14.666 2 15.256 2 16c0 .743.464 1.333.837 1.808.192.243.43.546.464.718.037.19-.065.556-.156.88-.168.603-.36 1.285-.082 1.953.281.679.905 1.029 1.456 1.338.288.161.614.344.716.496.104.155.15.53.19.86.075.624.16 1.331.675 1.846.515.515 1.222.6 1.846.676.33.04.705.086.86.19.152.101.335.428.497.716.309.55.659 1.175 1.337 1.456.668.277 1.35.086 1.953-.082.324-.09.691-.193.88-.156.173.034.476.272.72.464.474.373 1.064.837 1.807.837.743 0 1.333-.464 1.808-.837.243-.192.546-.43.718-.464.19-.037.557.065.88.156.603.168 1.285.36 1.953.082.679-.281 1.029-.905 1.338-1.456.161-.288.344-.614.496-.716.155-.104.53-.15.86-.19.624-.075 1.331-.16 1.846-.675.515-.515.6-1.222.676-1.846.04-.33.086-.705.19-.86.101-.152.428-.335.716-.497.55-.309 1.175-.659 1.456-1.337.277-.668.086-1.35-.082-1.953-.09-.324-.193-.691-.156-.88.034-.173.272-.476.464-.72Zm-6.729-2.874a.972.972 0 0 1-.253.461l-2.264 2.304a.432.432 0 0 0-.118.378l.534 3.252a.986.986 0 0 1-.202.785.914.914 0 0 1-.711.348.887.887 0 0 1-.431-.113l-2.799-1.536a.405.405 0 0 0-.38 0l-2.8 1.537a.91.91 0 0 1-1.142-.235.986.986 0 0 1-.202-.784l.534-3.253a.44.44 0 0 0-.118-.378l-2.264-2.304a.972.972 0 0 1-.254-.46 1.002 1.002 0 0 1 .303-.973.904.904 0 0 1 .465-.217l3.128-.474a.41.41 0 0 0 .309-.234l1.399-2.96a.948.948 0 0 1 .341-.394.893.893 0 0 1 .98 0 .948.948 0 0 1 .34.395l1.4 2.959c.03.062.072.116.126.156a.4.4 0 0 0 .182.077l3.129.475c.171.025.332.1.465.217a1.001 1.001 0 0 1 .303.973Z"/></symbol><symbol viewBox="0 0 16 16" id="telegram" xmlns="http://www.w3.org/2000/svg"><path d="m14.629 3.698-2.012 9.618c-.152.679-.548.848-1.11.528l-3.066-2.29-1.48 1.442c-.163.166-.3.305-.616.305l.22-3.165 5.683-5.204c.247-.223-.054-.347-.384-.123L4.839 9.29l-3.024-.959c-.658-.208-.67-.667.137-.986L13.78 2.727c.548-.208 1.027.124.849.971Z"/></symbol><symbol viewBox="0 0 48 48" id="travel" xmlns="http://www.w3.org/2000/svg"><path d="M21.188 17.597a1.406 1.406 0 1 1 2.813 0v8.044l.07-.025 5.588-1.862v-8.756a4.645 4.645 0 0 0-4.64-4.64H8.852a4.645 4.645 0 0 0-4.64 4.64v21.825a4.648 4.648 0 0 0 3.234 4.422v1.64a1.406 1.406 0 1 0 2.813 0v-1.422h12.308a16.623 16.623 0 0 1-1.38-6.645l.001-17.221Zm-8.504 16.801a1.406 1.406 0 0 1-2.813 0V17.597a1.406 1.406 0 1 1 2.813 0v16.801Zm5.658 0a1.406 1.406 0 0 1-2.812 0V17.597a1.406 1.406 0 0 1 2.812 0v16.801ZM14.116 2.812h5.64v4.734h2.812V2.803A2.807 2.807 0 0 0 19.765 0h-5.658a2.806 2.806 0 0 0-2.803 2.803v4.743h2.812V2.812Z"/><path d="m42.825 28.284-8.488-2.829a1.406 1.406 0 0 0-.889 0l-8.487 2.83a1.406 1.406 0 0 0-.962 1.333v5.2a13.802 13.802 0 0 0 9.45 13.11c.288.096.6.096.889 0a13.801 13.801 0 0 0 9.449-13.11v-5.2a1.406 1.406 0 0 0-.962-1.334Zm-4.914 8.065-5.076 3.088a1.4 1.4 0 0 1-1.364.054 1.406 1.406 0 0 1-.498-.421l-1.5-2.033a1.406 1.406 0 0 1 2.265-1.669l.735.997 3.976-2.419a1.406 1.406 0 0 1 1.462 2.403Z"/></symbol><symbol viewBox="0 0 16 16" id="viber" xmlns="http://www.w3.org/2000/svg"><path d="M8 1.335c-1.071.013-3.374.19-4.662 1.37-.958.948-1.292 2.35-1.331 4.084-.033 1.728-.072 4.973 3.058 5.856v1.346s-.02.538.337.648c.438.14.688-.275 1.105-.72l.778-.879c2.142.178 3.782-.232 3.97-.293.435-.139 2.883-.451 3.283-3.696.41-3.351-.2-5.463-1.301-6.418h-.007c-.332-.306-1.668-1.279-4.652-1.29 0 0-.222-.014-.578-.008Zm.037.942a7.02 7.02 0 0 1 .488.011c2.527.007 3.732.767 4.017 1.023.927.794 1.405 2.697 1.055 5.495-.332 2.713-2.317 2.885-2.685 3.002-.156.05-1.6.406-3.42.289 0 0-1.356 1.634-1.78 2.055-.067.074-.146.095-.196.085-.071-.018-.093-.107-.089-.229l.013-2.233c-2.655-.733-2.498-3.5-2.47-4.946.033-1.446.304-2.628 1.113-3.43 1.088-.982 3.043-1.115 3.953-1.122Zm.2 1.446a.166.166 0 1 0 0 .332 3.136 3.136 0 0 1 2.242.883c.606.588.9 1.378.912 2.411 0 .092.074.167.167.167V7.51a.167.167 0 0 0 .168-.165 3.588 3.588 0 0 0-1.009-2.646c-.66-.645-1.496-.977-2.48-.977Zm-2.198.382a.523.523 0 0 0-.342.067H5.69a2.61 2.61 0 0 0-.637.523 1.003 1.003 0 0 0-.256.525.71.71 0 0 0 .026.302l.01.006c.172.504.396.988.67 1.444a8.48 8.48 0 0 0 1.29 1.762l.015.022.024.017.015.018.017.015c.532.505 1.127.94 1.769 1.295.734.4 1.18.588 1.447.667v.004c.078.024.15.034.221.034.228-.016.444-.109.613-.262a2.53 2.53 0 0 0 .517-.638v-.004c.128-.241.085-.469-.1-.623-.37-.323-.77-.61-1.195-.857-.285-.155-.574-.061-.69.095l-.25.315c-.129.156-.361.134-.361.134l-.007.004C7.093 8.527 6.63 6.772 6.63 6.772s-.022-.239.139-.36l.312-.252c.15-.122.254-.41.094-.695a7.498 7.498 0 0 0-.856-1.194.475.475 0 0 0-.28-.167Zm2.486.495c-.221 0-.221.334.003.334A2.098 2.098 0 0 1 10 5.572 1.94 1.94 0 0 1 10.5 7a.168.168 0 0 0 .167.165l.007.009a.169.169 0 0 0 .167-.167c.015-.662-.191-1.218-.595-1.663C9.84 4.9 9.273 4.65 8.549 4.6h-.024Zm.274.898c-.228-.006-.236.335-.01.341.55.029.816.306.851.877a.166.166 0 0 0 .165.163h.007a.168.168 0 0 0 .16-.178c-.039-.744-.445-1.164-1.166-1.202H8.8Z"/></symbol><symbol viewBox="0 0 24 24" id="vk" xmlns="http://www.w3.org/2000/svg"><path d="M21.579 6.855c.14-.465 0-.806-.662-.806h-2.193c-.558 0-.813.295-.953.619 0 0-1.115 2.719-2.695 4.482-.51.513-.743.675-1.021.675-.139 0-.341-.162-.341-.627V6.855c0-.558-.161-.806-.626-.806H9.642c-.348 0-.558.258-.558.504 0 .528.79.65.871 2.138v3.228c0 .707-.127.836-.407.836-.743 0-2.551-2.73-3.624-5.853-.209-.607-.42-.852-.98-.852H2.752c-.627 0-.752.295-.752.619 0 .582.743 3.462 3.461 7.27 1.812 2.602 4.363 4.012 6.687 4.012 1.393 0 1.565-.313 1.565-.853v-1.966c0-.626.133-.752.574-.752.324 0 .882.164 2.183 1.417 1.486 1.486 1.732 2.153 2.567 2.153h2.192c.626 0 .939-.313.759-.931-.197-.615-.907-1.51-1.849-2.57-.512-.603-1.277-1.253-1.51-1.578-.325-.42-.231-.604 0-.976.001 0 2.672-3.761 2.95-5.04Z"/></symbol><symbol viewBox="0 0 32 32" id="weekend" xmlns="http://www.w3.org/2000/svg"><path d="M27.6 5.618h-2v-.8a.808.808 0 0 0-.8-.801h-.802a.81.81 0 0 0-.8.8v.8H22v-.816A.807.807 0 0 0 21.2 4h-.801c-.436 0-.8.364-.8.8v.816h-7.2v-.815A.807.807 0 0 0 11.596 4h-.8a.805.805 0 0 0-.797.8v.816H8.798v-.815a.806.806 0 0 0-.8-.801h-.8c-.436 0-.8.364-.8.8v.816h-2.02A.402.402 0 0 0 4 6.014v21.584c0 .22.178.4.4.402h23.2a.4.4 0 0 0 .4-.402V6.014a.4.4 0 0 0-.4-.396ZM7.196 4.8H8v.815h-.802V4.8Zm3.6 0h.801v.815h-.8V4.8Zm9.603 0h.801v.815h-.8V4.8Zm3.598.018h.801v.799H24v-.8Zm-19.2 1.598h1.6V7.2c0 .435.363.799.801.799h.798c.546.012.546-.811 0-.8h-.8v-.782h2.805V7.2c0 .435.36.799.797.799h.8c.545.012.545-.811 0-.8h-.8v-.782H19.6V7.2c0 .435.365.799.802.799h.8c.545.012.545-.811 0-.8h-.8v-.782H23.2v.8c0 .436.364.8.801.8h.8c.534 0 .534-.8 0-.8H24v-.801h3.202v2.4H4.797l.001-2.399Zm11.19 4.39a.4.4 0 0 1 .409.405v1.598c.012.544-.812.544-.8 0v-1.598a.4.4 0 0 1 .393-.405h-.001Zm-4.68 2.127 1.107 1.154c.403.386-.209.973-.578.555l-1.108-1.156c-.239-.242-.085-.653.275-.68a.412.412 0 0 1 .304.127Zm9.653-.127a.4.4 0 0 1 .307.68l-1.108 1.156c-.37.401-.965-.168-.578-.555l1.107-1.154a.404.404 0 0 1 .272-.127Zm-4.96.967a4.643 4.643 0 0 1 4.632 4.633 4.633 4.633 0 0 1-7.91 3.274 4.636 4.636 0 0 1-1.36-3.274 4.637 4.637 0 0 1 4.636-4.632l.002-.001Zm-7.203 4.234h1.6c.523.012.523.788 0 .8h-1.6c-.545.012-.545-.812 0-.801v.001Zm12.801 0h1.6c.521.012.521.788 0 .8h-1.6c-.544.012-.544-.812 0-.801v.001Zm-1.44 4.167 1.109 1.152c.396.386-.212.964-.58.552l-1.106-1.153c-.239-.241-.084-.652.274-.68a.412.412 0 0 1 .304.129Zm-8.051-.128a.401.401 0 0 1 .307.68l-1.107 1.152c-.369.387-.946-.166-.579-.552l1.108-1.152a.398.398 0 0 1 .272-.127l-.001-.001Zm3.882 1.552a.402.402 0 0 1 .408.405v1.599c.012.543-.812.543-.8 0v-1.599a.4.4 0 0 1 .392-.405Z"/></symbol><symbol viewBox="0 0 16 16" id="whatsapp" xmlns="http://www.w3.org/2000/svg"><path fill-rule="evenodd" clip-rule="evenodd" d="M12.269 3.755A5.947 5.947 0 0 0 8.035 2 5.994 5.994 0 0 0 2.05 7.985a5.98 5.98 0 0 0 .799 2.992L2 14.077l3.173-.832c.877.477 1.86.728 2.86.728h.002a5.993 5.993 0 0 0 5.533-8.276 5.953 5.953 0 0 0-1.3-1.942Zm-4.234 9.208h-.002c-.89 0-1.765-.24-2.532-.694l-.181-.108-1.883.494.502-1.835-.118-.188a4.965 4.965 0 0 1-.76-2.647 4.982 4.982 0 0 1 6.88-4.597c.604.25 1.152.618 1.613 1.081a4.946 4.946 0 0 1 1.455 3.52 4.982 4.982 0 0 1-4.974 4.974Zm2.729-3.726c-.15-.075-.885-.436-1.022-.486-.137-.05-.236-.075-.336.074-.1.15-.387.486-.474.586-.087.1-.175.112-.324.038-.15-.075-.631-.233-1.203-.742a4.505 4.505 0 0 1-.832-1.036c-.087-.15-.009-.231.066-.306.068-.066.15-.174.224-.262.075-.087.1-.149.15-.249.05-.1.025-.187-.013-.262-.037-.075-.337-.811-.461-1.11-.121-.29-.244-.252-.336-.256a6.418 6.418 0 0 0-.286-.005.55.55 0 0 0-.4.186c-.137.15-.523.512-.523 1.248s.536 1.447.61 1.547c.075.1 1.055 1.61 2.555 2.258.358.154.636.246.853.315.358.114.684.098.942.06.287-.043.885-.362 1.01-.711.124-.35.124-.649.087-.711-.038-.063-.138-.101-.287-.176Z"/></symbol></svg>