<svg width="24" height="24" viewBox="0 0 24 24" fill="none" xmlns="http://www.w3.org/2000/svg">
<path d="M15.3892 0H8.611C7.53179 0 6.60535 0.664828 6.21845 1.60627H17.7819C17.3949 0.664828 16.4684 0 15.3892 0ZM18.4016 3.01252H5.59857C4.17264 3.01252 3.01257 4.17258 3.01257 5.59847V23.2969C3.01257 23.6852 3.32743 24 3.7157 24H8.28446V20.661C8.28446 19.2351 9.44453 18.075 10.8705 18.075H13.1298C14.5557 18.075 15.7157 19.2351 15.7157 20.661V24H20.2845C20.6728 24 20.9876 23.6852 20.9876 23.2969V5.59847C20.9875 4.17258 19.8276 3.01252 18.4016 3.01252ZM7.97856 16.2628C7.84634 16.3942 7.66765 16.4682 7.48126 16.4686C7.29501 16.468 7.1165 16.3941 6.98439 16.2628C6.8527 16.1308 6.77857 15.952 6.77814 15.7655C6.77814 15.5808 6.85314 15.3994 6.98439 15.2686C7.1164 15.1371 7.29495 15.063 7.48126 15.0624C7.66646 15.0624 7.84782 15.1378 7.97856 15.2686C8.10994 15.4007 8.18391 15.5792 8.18439 15.7655C8.18439 15.9506 8.10939 16.132 7.97856 16.2628ZM7.97856 13.2502C7.8465 13.3818 7.66774 13.456 7.48126 13.4564C7.29662 13.4564 7.11512 13.3814 6.98439 13.2502C6.85278 13.1182 6.77865 12.9396 6.77814 12.7532C6.77814 12.5681 6.85314 12.3867 6.98439 12.2559C7.11644 12.1246 7.29499 12.0506 7.48126 12.0501C7.66646 12.0501 7.84782 12.1252 7.97856 12.2559C8.10994 12.3882 8.18389 12.5668 8.18439 12.7532C8.18439 12.938 8.10939 13.1194 7.97856 13.2502ZM7.97856 10.2379C7.84629 10.3692 7.66764 10.4432 7.48126 10.4438C7.29501 10.4432 7.1165 10.3692 6.98439 10.2379C6.85309 10.1072 6.77814 9.92578 6.77814 9.74063C6.77814 9.55547 6.85314 9.37406 6.98439 9.24328C7.1165 9.112 7.29502 9.03807 7.48126 9.0375C7.66646 9.0375 7.8474 9.1125 7.97856 9.24328C8.10939 9.37406 8.18439 9.55547 8.18439 9.74063C8.18439 9.92578 8.10939 10.1072 7.97856 10.2379ZM7.97856 7.22531C7.84634 7.35668 7.66765 7.43062 7.48126 7.43109C7.29662 7.43109 7.11512 7.35609 6.98396 7.22531C6.85257 7.09308 6.77862 6.91438 6.77814 6.72797C6.77814 6.54286 6.85314 6.36187 6.98396 6.23109C7.11517 6.09984 7.29615 6.02484 7.48126 6.02484C7.66646 6.02484 7.84782 6.09989 7.97856 6.23109C8.10939 6.36187 8.18439 6.54281 8.18439 6.72797C8.18439 6.91312 8.10939 7.09453 7.97856 7.22531ZM10.9908 16.2628C10.8587 16.3941 10.6801 16.4681 10.4939 16.4686C10.3075 16.4681 10.1288 16.3942 9.99657 16.2628C9.86523 16.1306 9.79128 15.9519 9.79075 15.7655C9.79075 15.5804 9.86584 15.3994 9.99657 15.2686C10.1288 15.1371 10.3074 15.063 10.4939 15.0624C10.6791 15.0624 10.86 15.1378 10.9908 15.2686C11.1225 15.4005 11.1966 15.5792 11.197 15.7655C11.197 15.9506 11.122 16.132 10.9908 16.2628ZM10.9913 13.2502C10.8592 13.3817 10.6804 13.4558 10.4939 13.4564C10.3088 13.4564 10.1279 13.3814 9.99662 13.2502C9.86535 13.118 9.7914 12.9395 9.79079 12.7532C9.79079 12.5681 9.86589 12.3867 9.99662 12.2559C10.1289 12.1247 10.3075 12.0507 10.4939 12.0501C10.6803 12.0507 10.859 12.1246 10.9913 12.2559C11.1226 12.3882 11.1965 12.5669 11.197 12.7532C11.1965 12.9395 11.1226 13.118 10.9913 13.2502ZM10.9913 10.2379C10.859 10.3692 10.6803 10.4432 10.4939 10.4438C10.3075 10.4431 10.1289 10.3692 9.99662 10.2379C9.86589 10.1072 9.79079 9.92578 9.79079 9.74063C9.79079 9.55547 9.86589 9.37406 9.99662 9.24328C10.1289 9.11201 10.3076 9.03809 10.4939 9.0375C10.6787 9.0375 10.8601 9.1125 10.9913 9.24328C11.1226 9.37555 11.1966 9.55424 11.197 9.74063C11.197 9.92578 11.122 10.1072 10.9913 10.2379ZM10.9913 7.22531C10.859 7.35659 10.6803 7.43052 10.4939 7.43109C10.3088 7.43109 10.1274 7.35609 9.99662 7.22531C9.86527 7.09306 9.79132 6.91437 9.79079 6.72797C9.79079 6.54286 9.86589 6.36187 9.99662 6.23109C10.1287 6.09944 10.3074 6.02531 10.4939 6.02484C10.6791 6.02484 10.8605 6.09989 10.9913 6.23109C11.1225 6.36323 11.1965 6.54174 11.197 6.72797C11.197 6.91312 11.122 7.09406 10.9913 7.22531ZM14.0034 16.2628C13.8712 16.3942 13.6925 16.4681 13.5061 16.4686C13.3198 16.468 13.1413 16.3941 13.0092 16.2628C12.8779 16.1306 12.8039 15.9519 12.8034 15.7655C12.8034 15.5804 12.8784 15.3994 13.0092 15.2686C13.14 15.1378 13.3214 15.0624 13.5061 15.0624C13.6913 15.0624 13.8726 15.1378 14.0034 15.2686C14.1347 15.3994 14.2097 15.5808 14.2097 15.7655C14.2092 15.952 14.1351 16.1307 14.0034 16.2628ZM14.0034 13.2502C13.8713 13.3818 13.6926 13.4559 13.5061 13.4564C13.3197 13.4558 13.1412 13.3817 13.0092 13.2502C12.8779 13.118 12.804 12.9395 12.8034 12.7532C12.8034 12.5681 12.8784 12.3867 13.0092 12.2559C13.1413 12.1247 13.3198 12.0507 13.5061 12.0501C13.6913 12.0501 13.8726 12.1252 14.0034 12.2559C14.1347 12.3867 14.2097 12.5681 14.2097 12.7532C14.2092 12.9396 14.135 13.1182 14.0034 13.2502ZM12.8035 9.74063C12.8035 9.55547 12.8785 9.37406 13.0092 9.24328C13.1415 9.11192 13.3202 9.03799 13.5066 9.0375C13.6913 9.0375 13.8727 9.1125 14.0035 9.24328C14.1342 9.37406 14.2092 9.55547 14.2092 9.74063C14.2092 9.92578 14.1342 10.1072 14.0035 10.2379C13.8714 10.3692 13.6929 10.4431 13.5066 10.4438C13.3214 10.4438 13.1401 10.3687 13.0092 10.2379C12.8779 10.1057 12.804 9.92701 12.8035 9.74063ZM14.0034 7.22531C13.8714 7.35665 13.6928 7.43059 13.5066 7.43109C13.3214 7.43109 13.14 7.35609 13.0092 7.22531C12.8779 7.09305 12.8039 6.91436 12.8034 6.72797C12.8034 6.54286 12.8784 6.36187 13.0092 6.23109C13.1413 6.09942 13.3201 6.02528 13.5066 6.02484C13.6917 6.02484 13.8726 6.09989 14.0034 6.23109C14.1342 6.36187 14.2097 6.54281 14.2097 6.72797C14.2097 6.91312 14.1342 7.09453 14.0034 7.22531ZM17.0161 16.2628C16.8839 16.3942 16.7052 16.4681 16.5188 16.4686C16.3326 16.4681 16.154 16.3941 16.0219 16.2628C15.8903 16.1308 15.8161 15.952 15.8157 15.7655C15.8157 15.5808 15.8907 15.3994 16.0219 15.2686C16.1539 15.1371 16.3325 15.063 16.5188 15.0624C16.7039 15.0624 16.8854 15.1378 17.0161 15.2686C17.1475 15.4007 17.2215 15.5792 17.2219 15.7655C17.2214 15.9519 17.1475 16.1306 17.0161 16.2628ZM17.0161 13.2502C16.884 13.3818 16.7053 13.4559 16.5188 13.4564C16.3336 13.4564 16.1527 13.3814 16.0219 13.2502C15.8903 13.1182 15.8162 12.9396 15.8157 12.7532C15.8157 12.5681 15.8907 12.3867 16.0219 12.2559C16.154 12.1246 16.3325 12.0506 16.5188 12.0501C16.7052 12.0506 16.8839 12.1246 17.0161 12.2559C17.1475 12.3882 17.2214 12.5668 17.2219 12.7532C17.2213 12.9395 17.1474 13.118 17.0161 13.2502ZM17.0161 10.2379C16.8838 10.3692 16.7052 10.4431 16.5188 10.4438C16.3326 10.4432 16.154 10.3692 16.0219 10.2379C15.8906 10.1072 15.8157 9.92578 15.8157 9.74063C15.8157 9.55547 15.8907 9.37406 16.0219 9.24328C16.154 9.11199 16.3326 9.03805 16.5188 9.0375C16.7039 9.0375 16.8849 9.1125 17.0161 9.24328C17.1475 9.37551 17.2215 9.55422 17.2219 9.74063C17.2219 9.92578 17.1469 10.1072 17.0161 10.2379ZM17.0161 7.22531C16.8838 7.35658 16.7052 7.4305 16.5188 7.43109C16.3336 7.43109 16.1527 7.35609 16.0219 7.22531C15.8902 7.09325 15.8161 6.91447 15.8157 6.72797C15.8157 6.54286 15.8907 6.36187 16.0219 6.23109C16.1538 6.09941 16.3324 6.02526 16.5188 6.02484C16.7053 6.02531 16.884 6.09944 17.0161 6.23109C17.1475 6.36314 17.2214 6.5417 17.2219 6.72797C17.2219 6.91312 17.1469 7.09453 17.0161 7.22531Z" fill="white"/>
<path d="M13.1298 19.4812H12.7032V24H14.3095V20.6609C14.3095 20.0104 13.7803 19.4812 13.1298 19.4812ZM9.69067 20.6609V24H11.297V19.4812H10.8704C10.2199 19.4812 9.69067 20.0104 9.69067 20.6609Z" fill="white"/>
</svg>
