<svg width="24" height="24" viewBox="0 0 24 24" fill="none" xmlns="http://www.w3.org/2000/svg">
<path d="M7.78133 0C6.65178 0 3.38647 0.05175 2.91997 2.85938H12.6427C12.1762 0.05175 8.91087 0 7.78133 0ZM16.922 23.2969V18.0596L22.1583 15.4415C22.3966 15.322 22.547 15.0789 22.547 14.8125C22.547 14.5461 22.3966 14.303 22.1583 14.1835L16.5333 11.371C16.315 11.2626 16.0568 11.2728 15.8494 11.4019C15.7474 11.4649 15.6632 11.5529 15.6048 11.6576C15.5464 11.7623 15.5158 11.8801 15.5157 12V23.2969C15.5157 23.6855 15.8302 24 16.2188 24C16.6075 24 16.922 23.6855 16.922 23.2969ZM13.1379 4.26562H2.42483L1.52736 6.06052C1.41819 6.2782 1.42986 6.53705 1.55825 6.74442C1.68664 6.9518 1.91258 7.07812 2.15633 7.07812H13.4063C13.6501 7.07812 13.876 6.9518 14.0044 6.74442C14.1328 6.53705 14.1445 6.2782 14.0353 6.06052L13.1379 4.26562ZM12.7032 10.5938V8.48438H2.85945V10.5938C2.85945 12.2914 4.06925 13.7115 5.67195 14.0382V15.5156H5.34509L7.78133 19.17L10.2176 15.5156H9.8907V14.0382C11.4934 13.7115 12.7032 12.2914 12.7032 10.5938ZM6.37508 21.1406H9.18758V24H6.37508V21.1406ZM1.4532 19.0312V23.2969C1.4532 23.6855 1.76769 24 2.15633 24H4.96883V20.4375C4.96883 20.0489 5.28331 19.7344 5.67195 19.7344H6.46751L3.79869 15.7311C2.43683 16.2159 1.4532 17.5051 1.4532 19.0312ZM11.764 15.7311L9.09514 19.7344H9.8907C10.2793 19.7344 10.5938 20.0489 10.5938 20.4375V24H13.4063C13.795 24 14.1095 23.6855 14.1095 23.2969V19.0312C14.1095 17.5051 13.1258 16.2159 11.764 15.7311Z" fill="white"/>
</svg>
