<svg width="274" height="274" viewBox="0 0 274 274" fill="none" xmlns="http://www.w3.org/2000/svg">
<g clip-path="url(#clip0_2938_3248)">
<path d="M191.114 56.4282C191.738 54.3995 193.897 53.2563 195.926 53.8801L217.185 60.4178C219.214 61.0417 220.357 63.2002 219.733 65.2288L212.993 87.1488L225.258 90.9205L231.998 69.0005C234.702 60.2084 229.749 50.8562 220.957 48.1525L199.697 41.6149C190.905 38.9112 181.553 43.8644 178.849 52.6565L172.109 74.5765L184.374 78.3482L191.114 56.4282ZM78.3194 219.986C76.9202 214.998 76.8889 209.594 78.4931 204.377L106.766 112.435L50.7553 95.2108C42.8651 92.7844 34.4719 97.2296 32.0456 105.12L8.17261 182.752C5.95976 189.948 9.46381 197.56 16.0831 200.685L14.1522 206.965C13.1107 210.351 15.0121 213.942 18.3989 214.983C21.7857 216.024 25.3759 214.123 26.4174 210.736L28.3028 204.605L78.3195 219.986L78.3194 219.986ZM54.0615 120.84C55.103 117.453 58.6932 115.552 62.08 116.593C65.4668 117.635 67.3682 121.225 66.3268 124.612L47.4827 185.891C46.4412 189.278 42.8511 191.179 39.4642 190.138C36.0774 189.096 34.176 185.506 35.2175 182.119L54.0615 120.84ZM100.424 86.4913C101.048 84.4627 103.207 83.3194 105.235 83.9433L114.639 86.8349L114.876 86.0643C116.141 81.9493 118.28 78.3393 121.028 75.3746L109.007 71.6781C100.215 68.9744 90.8628 73.9275 88.1591 82.7196L85.1902 92.3744L97.4554 96.1461L100.424 86.4913ZM243.972 110.101L145.851 79.9273C137.96 77.5009 129.567 81.9462 127.141 89.8364L90.7583 208.149C88.5455 215.345 92.0495 222.957 98.6689 226.081L96.7379 232.361C95.6964 235.747 97.5978 239.338 100.985 240.379C104.371 241.421 107.962 239.519 109.003 236.132L110.889 230.001L188.568 253.888L186.683 260.02C185.641 263.407 187.543 266.997 190.929 268.038C194.316 269.08 197.906 267.178 198.948 263.792L200.879 257.512C208.11 258.647 215.286 254.319 217.499 247.123L253.881 128.811C256.308 120.92 251.862 112.527 243.972 110.101ZM130.068 211.287C129.027 214.674 125.437 216.575 122.05 215.534C118.663 214.492 116.762 210.902 117.803 207.515L149.157 105.557C150.198 102.17 153.788 100.268 157.175 101.31C160.562 102.351 162.463 105.941 161.422 109.328L130.068 211.287ZM187.464 235.649C184.078 234.608 182.176 231.018 183.218 227.631L214.571 125.672C215.613 122.285 219.203 120.384 222.59 121.426C225.976 122.467 227.878 126.057 226.836 129.444L195.483 231.403C194.441 234.789 190.851 236.691 187.464 235.649Z" fill="#91B6D6"/>
</g>
<defs>
<clipPath id="clip0_2938_3248">
<rect width="219" height="219" fill="white" transform="translate(64.3711) rotate(17.0933)"/>
</clipPath>
</defs>
</svg>
