<svg width="32" height="32" viewBox="0 0 32 32" fill="none" xmlns="http://www.w3.org/2000/svg">
<g clip-path="url(#clip0_2903_1591)">
<path d="M4.89504 3.77635H4.89235C4.7433 3.77603 4.59566 3.80524 4.45796 3.86229C4.32026 3.91934 4.19523 4.00311 4.09008 4.10875C3.98288 4.21514 3.89788 4.34177 3.84003 4.48129C3.78217 4.62081 3.75261 4.77043 3.75306 4.92146V22.0922C3.75306 22.7218 4.26732 23.2353 4.89957 23.2369C7.56495 23.2433 12.0305 23.7988 15.1112 27.0227V9.05303C15.1112 8.83959 15.0566 8.63908 14.9537 8.47315C12.4253 4.40127 7.56646 3.7826 4.89504 3.77635ZM28.247 22.0922V4.92136C28.247 4.61407 28.1273 4.32542 27.91 4.10864C27.8049 4.00303 27.6798 3.91928 27.5422 3.86223C27.4045 3.80518 27.2569 3.77596 27.1079 3.77625H27.1051C24.4337 3.7826 19.5749 4.40127 17.0464 8.47315C16.9435 8.63908 16.889 8.83959 16.889 9.05303V27.0225C19.9697 23.7987 24.4353 23.2432 27.1006 23.2368C27.7328 23.2352 28.247 22.7217 28.247 22.0922Z" fill="#4E4E4E"/>
<path d="M30.8551 7.73621H30.0248V22.0922C30.0248 23.6998 28.715 25.0108 27.1048 25.0148C24.844 25.0201 21.1163 25.4622 18.4762 27.9609C23.0422 26.843 27.8556 27.5697 30.5988 28.1948C30.7668 28.2336 30.9415 28.2338 31.1096 28.1955C31.2777 28.1572 31.435 28.0813 31.5697 27.9735C31.7043 27.8666 31.8129 27.7306 31.8874 27.5757C31.962 27.4208 32.0004 27.251 32 27.0791V8.8811C32.0001 8.24982 31.4864 7.73621 30.8551 7.73621ZM1.97517 22.0922V7.73621H1.14489C0.513726 7.73621 0 8.24982 0 8.8811V27.0788C0 27.429 0.156876 27.755 0.430331 27.9732C0.564943 28.081 0.722228 28.1569 0.890379 28.1953C1.05853 28.2336 1.23318 28.2333 1.40122 28.1945C4.14439 27.5693 8.95788 26.8426 13.5237 27.9606C10.8837 25.462 7.15596 25.02 4.89515 25.0146C3.28513 25.0108 1.97517 23.6998 1.97517 22.0922Z" fill="#4E4E4E"/>
</g>
<defs>
<clipPath id="clip0_2903_1591">
<rect width="32" height="32" fill="white"/>
</clipPath>
</defs>
</svg>
