<svg width="32" height="32" viewBox="0 0 32 32" fill="none" xmlns="http://www.w3.org/2000/svg">
<path d="M28.7769 7.59481L27.5073 6.32403C27.3645 6.18104 27.1708 6.1007 26.9688 6.10068H25.9971C25.8917 4.37325 24.4549 3 22.7031 3H9.29688C7.54507 3 6.10832 4.37325 6.00295 6.10068H5.03125C4.93122 6.10068 4.83217 6.1204 4.73976 6.15873C4.64735 6.19705 4.56338 6.25322 4.49266 6.32403L3.22313 7.59481C3.15239 7.6656 3.09627 7.74964 3.05799 7.84214C3.0197 7.93465 3 8.03379 3 8.13392V11.9462C3 12.3673 3.34105 12.7087 3.76172 12.7087C4.18239 12.7087 4.52344 12.3673 4.52344 11.9462V8.44973L5.34675 7.62561H5.99609V16.8203C9.14991 17.4453 22.9385 17.4278 26.0039 16.8203V7.62561H26.6532L27.4766 8.44973V11.9462C27.4766 12.3673 27.8176 12.7087 28.2383 12.7087C28.659 12.7087 29 12.3673 29 11.9462V8.13392C29 7.93171 28.9198 7.73779 28.7769 7.59481ZM6.85938 27.4197V27.7292C6.85938 28.4302 7.42863 29 8.12891 29H10.5156C11.2159 29 11.7852 28.4302 11.7852 27.7292V27.4497C7.02223 27.4395 7.21246 27.4725 6.85938 27.4197ZM20.2148 27.4497V27.7292C20.2148 28.4302 20.7841 29 21.4844 29H23.8711C24.5714 29 25.1406 28.4302 25.1406 27.7292V27.4197C24.7876 27.4725 24.9782 27.4395 20.2148 27.4497ZM5.99609 18.3688V21.1888L10.7981 22.022C10.9353 22.0458 11.0634 22.1068 11.1684 22.1984C11.2734 22.29 11.3513 22.4086 11.3937 22.5414L12.4724 25.9248H19.5277L20.6065 22.5414C20.6488 22.4086 20.7267 22.29 20.8317 22.1984C20.9368 22.1068 21.0648 22.0458 21.2021 22.022L26.0039 21.1888V18.3688C22.335 18.9551 9.66687 18.9554 5.99609 18.3688ZM18.2852 22.1124H13.7148C13.2942 22.1124 12.9531 21.771 12.9531 21.35C12.9531 20.9289 13.2942 20.5875 13.7148 20.5875H18.2852C18.7058 20.5875 19.0469 20.9289 19.0469 21.35C19.0469 21.771 18.7058 22.1124 18.2852 22.1124Z" fill="#4E4E4E"/>
<path d="M21.1248 26H24.731C25.4307 26 26 25.4636 26 24.8043V23L21.9149 23.6672L21.1248 26ZM10.8752 26L10.0851 23.6672L6 23V24.8043C6 25.4636 6.56929 26 7.26904 26H10.8752Z" fill="#4E4E4E"/>
</svg>
