<svg width="16" height="17" viewBox="0 0 16 17" fill="none" xmlns="http://www.w3.org/2000/svg">
<g clip-path="url(#clip0_2937_546)">
<path d="M16 5.1685V4.31237C16 3.33168 15.2165 2.53668 14.25 2.53668H1.75C0.783498 2.53668 0 3.33168 0 4.31237V5.1685C0 5.21055 0.016462 5.25088 0.0457645 5.28061C0.075067 5.31034 0.11481 5.32705 0.15625 5.32705H15.8437C15.8852 5.32705 15.9249 5.31034 15.9542 5.28061C15.9835 5.25088 16 5.21055 16 5.1685ZM0 6.50027V11.9225C0 12.9031 0.783498 13.6981 1.75 13.6981H14.25C15.2165 13.6981 16 12.9031 16 11.9225V6.50027C16 6.45822 15.9835 6.41789 15.9542 6.38816C15.9249 6.35843 15.8852 6.34172 15.8437 6.34172H0.15625C0.11481 6.34172 0.075067 6.35843 0.0457645 6.38816C0.016462 6.41789 0 6.45822 0 6.50027ZM3.99999 10.6541C3.99999 10.9343 3.77612 11.1614 3.49999 11.1614H2.99999C2.72387 11.1614 2.5 10.9343 2.5 10.6541V10.1468C2.5 9.86659 2.72387 9.63943 2.99999 9.63943H3.49999C3.77612 9.63943 3.99999 9.86659 3.99999 10.1468V10.6541Z" fill="#B2B2B2"/>
</g>
<defs>
<clipPath id="clip0_2937_546">
<rect width="16" height="16.2348" fill="white"/>
</clipPath>
</defs>
</svg>
