<svg width="67" height="15" viewBox="0 0 67 15" fill="none" xmlns="http://www.w3.org/2000/svg">
<g clip-path="url(#clip0_2605_3076)">
<path d="M0.853867 8.25425H66.1462C66.566 8.25425 66.9052 7.91508 66.9052 7.49528C66.9052 7.07547 66.566 6.7363 66.1462 6.7363H2.68726L7.29329 2.13027C7.58976 1.8338 7.58976 1.35233 7.29329 1.05585C6.99681 0.759378 6.51534 0.759378 6.21886 1.05585L0.315468 6.95925C0.0972595 7.17746 0.0332184 7.50239 0.15181 7.78701C0.270401 8.06925 0.547905 8.25425 0.853867 8.25425Z" fill="white"/>
<path d="M6.76432 14.1647C6.95881 14.1647 7.1533 14.0912 7.30035 13.9418C7.59682 13.6453 7.59682 13.1638 7.30035 12.8674L1.38983 6.95685C1.09336 6.66038 0.611887 6.66038 0.315413 6.95685C0.018939 7.25333 0.018939 7.7348 0.315413 8.03128L6.22593 13.9418C6.37535 14.0912 6.56983 14.1647 6.76432 14.1647Z" fill="white"/>
</g>
<defs>
<clipPath id="clip0_2605_3076">
<rect width="67" height="15" fill="white" transform="matrix(-1 0 0 1 67 0)"/>
</clipPath>
</defs>
</svg>
