<svg width="67" height="15" viewBox="0 0 67 15" fill="none" xmlns="http://www.w3.org/2000/svg">
<g clip-path="url(#clip0_2605_3072)">
<path d="M66.1461 8.25425H0.853823C0.434015 8.25425 0.0948486 7.91508 0.0948486 7.49528C0.0948486 7.07547 0.434015 6.7363 0.853823 6.7363H64.3127L59.7067 2.13027C59.4102 1.8338 59.4102 1.35233 59.7067 1.05585C60.0032 0.759378 60.4847 0.759378 60.7811 1.05585L66.6845 6.95925C66.9027 7.17746 66.9668 7.50239 66.8482 7.78701C66.7296 8.06925 66.4521 8.25425 66.1461 8.25425Z" fill="white"/>
<path d="M60.2357 14.1647C60.0412 14.1647 59.8467 14.0912 59.6997 13.9418C59.4032 13.6453 59.4032 13.1638 59.6997 12.8674L65.6102 6.95685C65.9066 6.66038 66.3881 6.66038 66.6846 6.95685C66.9811 7.25333 66.9811 7.7348 66.6846 8.03128L60.7741 13.9418C60.6247 14.0912 60.4302 14.1647 60.2357 14.1647Z" fill="white"/>
</g>
<defs>
<clipPath id="clip0_2605_3072">
<rect width="67" height="15" fill="white"/>
</clipPath>
</defs>
</svg>
