<svg width="86" height="86" viewBox="0 0 86 86" fill="none" xmlns="http://www.w3.org/2000/svg">
<path d="M70.8962 57.7813L67.0397 44.3438H57.7812V56.4376C57.7812 58.2195 57.0734 59.9285 55.8134 61.1885C54.5534 62.4485 52.8444 63.1564 51.0625 63.1564H44.3438C44.1287 61.8126 45.3247 57.1632 41.1994 53.4679C42.1159 53.146 42.9102 52.5481 43.4732 51.7565C44.0363 50.9649 44.3404 50.0184 44.3438 49.047C44.3409 48.3482 44.1801 47.6592 43.8734 47.0313H45.9428L48.8184 60.4688H51.0625C52.1317 60.4688 53.157 60.0441 53.913 59.2881C54.669 58.5321 55.0938 57.5068 55.0938 56.4376V51.2507L53.1453 42.1535C52.9518 41.2527 52.4556 40.4453 51.7392 39.8658C51.0228 39.2864 50.1295 38.9698 49.2081 38.9688H45.4322C46.5341 36.9398 48.2003 34.0776 49.2753 32.3576L51.4522 34.5479C51.64 34.7336 51.8784 34.8598 52.1375 34.9107L57.7812 36.0395V41.6563H68.5312C69.6004 41.6563 70.6258 41.2316 71.3818 40.4756C72.1378 39.7196 72.5625 38.6943 72.5625 37.6251V29.5626C72.5625 28.4934 72.1378 27.4681 71.3818 26.7121C70.6258 25.9561 69.6004 25.5313 68.5312 25.5313H59.125C58.7686 25.5313 58.4268 25.6729 58.1748 25.9249C57.9228 26.1769 57.7812 26.5187 57.7812 26.8751V27.6813L55.4969 27.1707C53.4819 24.9886 51.3513 22.9162 49.1141 20.9626C48.2913 20.4905 47.3698 20.2167 46.4228 20.1631C45.4757 20.1094 44.5292 20.2774 43.6584 20.6535C40.1413 22.1722 36.9722 24.3946 34.3462 27.1842C31.5129 30.3486 29.371 34.0695 28.0575 38.1089C27.7042 39.1177 27.5967 40.1962 27.744 41.2549C27.8912 42.3136 28.2889 43.3219 28.9041 44.196L29.0384 44.3438H15.4531C14.4084 44.3408 13.3925 44.6867 12.5667 45.3267C11.7409 45.9667 11.1525 46.8641 10.8948 47.8766C10.637 48.889 10.7247 49.9585 11.144 50.9155C11.5632 51.8724 12.29 52.662 13.2091 53.1589C10.4347 54.6548 8.1168 56.8736 6.50104 59.5799C4.88528 62.2863 4.03186 65.3794 4.03125 68.5314C4.03125 68.8877 4.17282 69.2295 4.42483 69.4815C4.67683 69.7335 5.01862 69.8751 5.375 69.8751H8.0625C8.0625 73.0826 9.33666 76.1587 11.6047 78.4267C13.8727 80.6947 16.9488 81.9689 20.1562 81.9689C23.3637 81.9689 26.4398 80.6947 28.7078 78.4267C30.9758 76.1587 32.25 73.0826 32.25 69.8751H57.7812C57.7896 72.2216 58.4805 74.5151 59.7696 76.4758C61.0587 78.4365 62.8904 79.9799 65.0414 80.9177C67.1924 81.8556 69.5698 82.1474 71.8837 81.7577C74.1977 81.3679 76.3483 80.3134 78.0733 78.7226C79.7984 77.1319 81.0234 75.0736 81.5991 72.7988C82.1748 70.5239 82.0762 68.1308 81.3154 65.911C80.5546 63.6912 79.1645 61.7406 77.3145 60.2971C75.4644 58.8536 73.2344 57.9795 70.8962 57.7813ZM20.1562 79.2814C18.2959 79.2814 16.4773 78.7297 14.9304 77.6961C13.3836 76.6625 12.1779 75.1935 11.466 73.4747C10.7541 71.756 10.5678 69.8647 10.9307 68.04C11.2937 66.2154 12.1895 64.5394 13.505 63.2239C14.8205 61.9084 16.4965 61.0125 18.3212 60.6496C20.1458 60.2866 22.0371 60.4729 23.7559 61.1849C25.4746 61.8968 26.9437 63.1024 27.9773 64.6493C29.0108 66.1961 29.5625 68.0147 29.5625 69.8751C29.5625 71.1104 29.3192 72.3335 28.8465 73.4747C28.3738 74.6159 27.6809 75.6529 26.8075 76.5263C25.934 77.3998 24.8971 78.0926 23.7559 78.5653C22.6146 79.0381 21.3915 79.2814 20.1562 79.2814ZM69.875 79.2814C68.0146 79.2814 66.196 78.7297 64.6492 77.6961C63.1023 76.6625 61.8967 75.1935 61.1848 73.4747C60.4728 71.756 60.2865 69.8647 60.6495 68.04C61.0124 66.2154 61.9083 64.5394 63.2238 63.2239C64.5393 61.9084 66.2153 61.0125 68.0399 60.6496C69.8646 60.2866 71.7558 60.4729 73.4746 61.1849C75.1934 61.8968 76.6624 63.1024 77.696 64.6493C78.7296 66.1961 79.2812 68.0147 79.2812 69.8751C79.2812 71.1104 79.0379 72.3335 78.5652 73.4747C78.0925 74.6159 77.3997 75.6529 76.5262 76.5263C75.6528 77.3998 74.6158 78.0926 73.4746 78.5653C72.3334 79.0381 71.1102 79.2814 69.875 79.2814Z" fill="#236DAC"/>
<path d="M69.875 75.25C72.8435 75.25 75.25 72.8435 75.25 69.875C75.25 66.9065 72.8435 64.5 69.875 64.5C66.9065 64.5 64.5 66.9065 64.5 69.875C64.5 72.8435 66.9065 75.25 69.875 75.25Z" fill="#236DAC"/>
<path d="M20.1562 75.25C23.1248 75.25 25.5312 72.8435 25.5312 69.875C25.5312 66.9065 23.1248 64.5 20.1562 64.5C17.1877 64.5 14.7812 66.9065 14.7812 69.875C14.7812 72.8435 17.1877 75.25 20.1562 75.25Z" fill="#236DAC"/>
<path d="M25.5312 26.875C25.5312 26.5186 25.3897 26.1768 25.1377 25.9248C24.8857 25.6728 24.5439 25.5312 24.1875 25.5312H5.375C5.01862 25.5312 4.67683 25.6728 4.42483 25.9248C4.17282 26.1768 4.03125 26.5186 4.03125 26.875V41.6562H25.5312V26.875ZM67.1875 11.4219C67.1839 9.46285 66.4042 7.58508 65.0189 6.19984C63.6337 4.8146 61.7559 4.0348 59.7969 4.03125H55.7656C53.8182 4.03467 51.9505 4.80522 50.5671 6.17599C49.1838 7.54675 48.3962 9.40734 48.375 11.3547V14.62C48.3776 16.88 49.1939 19.0635 50.6744 20.771C52.1549 22.4785 54.2007 23.5959 56.4375 23.9187V13.4375C56.4375 13.0811 56.5791 12.7393 56.8311 12.4873C57.0831 12.2353 57.4249 12.0938 57.7812 12.0938H67.1875V11.4219Z" fill="#236DAC"/>
<path d="M59.125 23.1259C60.1397 23.0597 61.1303 22.7881 62.0369 22.3277C62.9436 21.8673 63.7473 21.2276 64.3993 20.4473C65.0514 19.6671 65.5383 18.7626 65.8304 17.7887C66.1226 16.8147 66.214 15.7916 66.0991 14.7812H59.125V23.1259Z" fill="#236DAC"/>
</svg>
