<svg width="16" height="17" viewBox="0 0 16 17" fill="none" xmlns="http://www.w3.org/2000/svg">
<g clip-path="url(#clip0_2937_551)">
<path d="M2.14551 14.977C2.3751 15.7061 3.0411 16.2348 3.82522 16.2348H12.1734C12.9575 16.2348 13.6235 15.7061 13.8531 14.977H2.14551ZM13.4219 2.60846L11.3684 0.524819C11.2847 0.439926 11.193 0.363653 11.0946 0.297119V2.87488C11.0946 2.90309 11.1057 2.93012 11.1254 2.95004C11.1451 2.96996 11.1718 2.98114 11.1996 2.98113H13.7041C13.6279 2.84631 13.5331 2.72138 13.4219 2.60846Z" fill="#B2B2B2"/>
<path d="M13.9386 3.93261H11.1993C10.6242 3.93261 10.1566 3.45815 10.1566 2.87493V0.000634174C10.1445 0 10.132 0 10.1198 0H3.82488C2.85157 0 2.05957 0.803657 2.05957 1.79154V6.67779H13.9386L13.9386 3.93261ZM8.00893 9.69195C7.72303 9.69195 7.58015 9.85496 7.58015 10.1808V11.4762C7.58015 11.8021 7.72303 11.9651 8.00893 11.9651C8.298 11.9651 8.44253 11.8022 8.44253 11.4762V10.1808C8.4425 9.85496 8.29796 9.69195 8.00893 9.69195Z" fill="#B2B2B2"/>
<path d="M14.0001 7.62927H1.99898C1.34583 7.62927 0.814453 8.16845 0.814453 8.83119V12.8237C0.814453 13.4864 1.34583 14.0256 1.99898 14.0256H14C14.6532 14.0256 15.1846 13.4864 15.1846 12.8237V8.83119C15.1846 8.16845 14.6532 7.62927 14.0001 7.62927ZM6.39066 11.4469C6.39066 11.8445 6.28301 12.1361 6.06788 12.3219C5.85266 12.5076 5.56519 12.6005 5.20554 12.6005H4.35282C4.25645 12.6005 4.17773 12.5778 4.11676 12.5321C4.05573 12.4865 4.0252 12.4327 4.0252 12.3708V9.25688C4.0252 9.19502 4.0557 9.14124 4.11676 9.09558C4.17773 9.04998 4.25648 9.02715 4.35282 9.02715H5.20554C5.56519 9.02715 5.85269 9.12006 6.06788 9.30581C6.28301 9.49156 6.39066 9.78328 6.39066 10.1808V11.4469ZM9.19453 11.4762C9.19453 11.8738 9.08688 12.1655 8.87175 12.3512C8.65656 12.537 8.36906 12.6299 8.00941 12.6299C7.65291 12.6299 7.367 12.537 7.15188 12.3512C6.93666 12.1655 6.8291 11.8738 6.8291 11.4762V10.1808C6.8291 9.78321 6.93666 9.49152 7.15188 9.30577C7.367 9.12002 7.65291 9.02712 8.00941 9.02712C8.36906 9.02712 8.65656 9.12002 8.87175 9.30577C9.08688 9.49152 9.19453 9.78324 9.19453 10.1808V11.4762ZM10.8277 11.9651C10.9176 11.9651 10.9922 11.9504 11.0517 11.9211C11.111 11.8917 11.1536 11.847 11.1793 11.7866C11.205 11.7264 11.2218 11.6766 11.2299 11.6375C11.2379 11.5984 11.2451 11.5446 11.2516 11.4762C11.2644 11.3231 11.3881 11.2465 11.6225 11.2465C11.7606 11.2465 11.8586 11.2717 11.9164 11.3222C11.9742 11.3728 12.0031 11.4681 12.0031 11.6082C12.0031 11.9243 11.8899 12.1736 11.6634 12.3561C11.437 12.5387 11.1471 12.6299 10.7939 12.6299C10.4502 12.6299 10.1716 12.537 9.958 12.3512C9.74437 12.1655 9.63762 11.8739 9.63762 11.4762V10.1808C9.63762 9.78324 9.74437 9.49156 9.958 9.30581C10.1716 9.12006 10.4502 9.02715 10.7939 9.02715C11.1471 9.02715 11.437 9.11356 11.6634 9.28624C11.8899 9.45902 12.0031 9.69687 12.0031 9.99994C12.0031 10.1401 11.9742 10.2354 11.9164 10.2859C11.8586 10.3365 11.7622 10.3617 11.6273 10.3617C11.3865 10.3617 11.2612 10.2852 11.2516 10.1319C11.2419 9.83861 11.099 9.69195 10.8228 9.69195C10.5337 9.69195 10.3892 9.85497 10.3892 10.1808V11.4762C10.3892 11.8021 10.5353 11.9651 10.8277 11.9651Z" fill="#B2B2B2"/>
<path d="M5.20515 9.69202H4.77637V11.9358H5.20515C5.49421 11.9358 5.63874 11.7729 5.63874 11.4469V10.1809C5.63874 9.85503 5.49421 9.69202 5.20515 9.69202Z" fill="#B2B2B2"/>
</g>
<defs>
<clipPath id="clip0_2937_551">
<rect width="16" height="16.2348" fill="white"/>
</clipPath>
</defs>
</svg>
