<svg width="60" height="60" viewBox="0 0 60 60" fill="none" xmlns="http://www.w3.org/2000/svg">
<path d="M58.5236 26.438L33.5657 1.48001C31.5973 -0.488454 28.4047 -0.488454 26.4363 1.48001C24.4678 3.44848 24.4678 6.64102 26.4363 8.60948L47.8271 30.0003L26.4363 51.3909C24.4678 53.3594 24.4678 56.5519 26.4363 58.5204C28.4047 60.4889 31.5973 60.4889 33.5657 58.5204L58.5236 33.5625C60.4921 31.5989 60.4921 28.4065 58.5236 26.438ZM28.5146 24.9267L8.70018 4.04306C6.70917 1.94725 3.48427 1.94725 1.49326 4.04306C-0.497753 6.13888 -0.497753 9.53877 1.49326 11.6371L17.7056 28.7237L1.49326 45.8103C-0.497753 47.9062 -0.497753 51.3085 1.49326 53.4044C3.48427 55.5003 6.70917 55.5003 8.70018 53.4044L28.5146 32.5208C30.5056 30.4249 30.5056 27.0251 28.5146 24.9267Z" fill="#91B6D6"/>
</svg>
