<svg width="30" height="30" viewBox="0 0 30 30" fill="none" xmlns="http://www.w3.org/2000/svg">
<path d="M6.42636 12.6537L3.54841 20.3302V20.3308C4.25267 23.1443 5.80062 25.6315 7.99189 27.5075L11.6028 26.1535C7.76743 22.7183 5.87438 17.6655 6.42636 12.6537ZM2.57406 22.9287L0.368145 28.8106C0.10449 29.513 0.791752 30.2079 1.49952 29.9419L6.15333 28.1971C4.61426 26.7028 3.39632 24.91 2.57406 22.9287Z" fill="#4E4E4E"/>
<path d="M12.5958 11.9378L9.31535 8.6573C6.65559 14.657 8.47394 21.5147 13.4922 25.4451L16.9936 24.1321C13.9185 20.9565 12.2553 16.524 12.5958 11.9378ZM14.3119 13.6539C14.4467 17.3831 16.0708 20.9073 18.8187 23.4472H18.8192L21.3855 22.4851C21.9849 22.2602 22.1489 21.4909 21.6984 21.0403L14.3119 13.6539ZM20.7309 16.4149C21.0741 16.7581 21.6306 16.7581 21.9738 16.4149C25.2802 13.1086 28.4996 14.1308 28.5318 14.1414C28.9922 14.2949 29.49 14.0461 29.6435 13.5856C29.797 13.1253 29.5481 12.6274 29.0876 12.4739C28.9143 12.4162 24.797 11.106 20.731 15.172C20.3877 15.5152 20.3876 16.0718 20.7309 16.4149ZM15.138 9.57892C19.2042 5.51336 17.8935 1.39565 17.8361 1.22222C17.6826 0.7617 17.1846 0.513278 16.7241 0.666784C16.2641 0.820291 16.0151 1.31772 16.1686 1.77824C16.1792 1.81046 17.2016 5.02999 13.8947 8.33623C13.5537 8.67728 13.5502 9.23336 13.8947 9.57892C14.2398 9.9239 14.7957 9.92121 15.138 9.57892ZM17.0023 11.4434C16.659 11.7867 16.659 12.3431 17.0023 12.6863C17.3423 13.0264 17.8949 13.0309 18.2399 12.6915C18.6939 12.4653 20.1031 13.3138 20.8863 12.5309C21.661 11.7561 20.8379 10.3756 21.0435 9.89174C21.528 9.68562 22.908 10.5092 23.6828 9.73448C24.4577 8.95968 23.6345 7.57913 23.8401 7.09523C24.3253 6.88905 25.7045 7.71271 26.4793 6.93797C27.2542 6.16318 26.431 4.78262 26.6366 4.29873C27.1189 4.0936 28.5016 4.91539 29.2759 4.14141C30.0587 3.35847 29.2118 1.94674 29.4364 1.49507C29.7744 1.1515 29.7726 0.598937 29.4311 0.257416C29.088 -0.0858052 28.5315 -0.0858052 28.1883 0.257416C27.4956 0.950126 27.6311 1.92805 27.7616 2.62721C27.0624 2.49673 26.0845 2.36121 25.3918 3.05386C24.6991 3.74657 24.8346 4.7245 24.9651 5.42366C24.266 5.29323 23.288 5.1576 22.5953 5.85037C21.9026 6.54308 22.0382 7.521 22.1687 8.22016C21.4694 8.08968 20.4915 7.9541 19.7989 8.64681C19.1062 9.33952 19.2417 10.3175 19.3722 11.0166C18.6729 10.8862 17.6949 10.7507 17.0023 11.4434ZM21.9738 3.98609C22.317 3.64287 22.317 3.08644 21.9738 2.74322C21.6306 2.4 21.0741 2.4 20.7309 2.74322C20.3877 3.08644 20.3877 3.64287 20.7309 3.98609C21.0741 4.32931 21.6306 4.32931 21.9738 3.98609Z" fill="#4E4E4E"/>
<path d="M27.5664 10.458C28.0517 10.458 28.4452 10.0645 28.4452 9.57911C28.4452 9.09373 28.0517 8.70026 27.5664 8.70026C27.081 8.70026 26.6875 9.09373 26.6875 9.57911C26.6875 10.0645 27.081 10.458 27.5664 10.458Z" fill="#4E4E4E"/>
<path d="M25.7026 17.6579C25.3593 18.0011 25.3593 18.5575 25.7026 18.9007C26.0458 19.244 26.6022 19.244 26.9454 18.9007C27.2886 18.5575 27.2886 18.0011 26.9454 17.6579C26.6023 17.3147 26.0458 17.3147 25.7026 17.6579ZM13.2737 5.22899C13.6169 4.88577 13.6169 4.32933 13.2737 3.98611C12.9305 3.64289 12.3741 3.64289 12.0309 3.98611C11.6876 4.32928 11.6876 4.88577 12.0309 5.22899C12.3741 5.57221 12.9306 5.57221 13.2737 5.22899Z" fill="#4E4E4E"/>
</svg>
