<svg width="32" height="32" viewBox="0 0 32 32" fill="none" xmlns="http://www.w3.org/2000/svg">
<path d="M18.7367 3.81055L17.6582 4.86557L17.9132 6.35559C17.9544 6.59859 17.7683 6.8231 17.5187 6.8231C17.3833 6.8231 17.4536 6.84115 16.0002 6.07409L14.6682 6.7771C14.3757 6.9315 14.0318 6.6827 14.0872 6.35559L14.3422 4.86557L13.2637 3.81055C13.0263 3.57855 13.1593 3.17624 13.4857 3.12854L14.9747 2.91154L15.6412 1.55652C15.7877 1.25922 16.2125 1.25877 16.3592 1.55652L17.0257 2.91154L18.5147 3.12854C18.8417 3.17634 18.9736 3.57905 18.7367 3.81055ZM11.8264 5.85763L11.7791 5.58213C11.9641 5.40183 12.1713 5.25653 12.0805 4.97697C11.9897 4.69757 11.7347 4.70142 11.481 4.66452L11.3573 4.41386C11.2109 4.11716 10.7864 4.11696 10.6399 4.41386L10.5162 4.66452C10.2606 4.70167 10.0075 4.69737 9.91666 4.97697C9.82586 5.25638 10.0344 5.40313 10.218 5.58213L10.1708 5.85763C10.1149 6.18369 10.4581 6.43334 10.7512 6.27929L10.9985 6.14919C11.2518 6.28239 11.307 6.32524 11.432 6.32524C11.6788 6.32524 11.8685 6.10294 11.8264 5.85763ZM8.32633 7.85766L8.27908 7.58216C8.46404 7.40186 8.67129 7.25655 8.58044 6.977C8.48964 6.6976 8.23468 6.70145 7.98093 6.66455L7.85723 6.41389C7.71083 6.11719 7.28637 6.11699 7.13982 6.41389L7.01611 6.66455C6.76051 6.7017 6.50741 6.6974 6.41661 6.977C6.3258 7.2564 6.53436 7.40316 6.71796 7.58216L6.67071 7.85766C6.61481 8.18372 6.95801 8.43337 7.25112 8.27932L7.49847 8.14922C7.75173 8.28242 7.80698 8.32527 7.93193 8.32527C8.17873 8.32527 8.36843 8.10297 8.32633 7.85766ZM21.8295 5.85763L21.7822 5.58213C21.9672 5.40183 22.1744 5.25653 22.0836 4.97697C21.9928 4.69757 21.7378 4.70142 21.4841 4.66452C21.3697 4.43276 21.2957 4.19091 21.0017 4.19091C20.708 4.19091 20.6328 4.43456 20.5193 4.66452L20.2427 4.70472C19.9153 4.75232 19.784 5.15592 20.021 5.38703L20.2212 5.58213C20.1775 5.83683 20.0952 6.07609 20.3331 6.24884C20.5707 6.42154 20.7747 6.26854 21.0017 6.14919C21.255 6.28239 21.3102 6.32524 21.4352 6.32524C21.6819 6.32524 21.8715 6.10294 21.8295 5.85763ZM25.3295 7.85766L25.2823 7.58216C25.4672 7.40186 25.6745 7.25655 25.5836 6.977C25.4928 6.6976 25.2379 6.70145 24.9841 6.66455C24.8698 6.43279 24.7957 6.19094 24.5018 6.19094C24.208 6.19094 24.1329 6.43459 24.0194 6.66455L23.7428 6.70475C23.4154 6.75235 23.284 7.15595 23.5211 7.38706L23.7212 7.58216C23.6775 7.83686 23.5953 8.07612 23.8331 8.24887C24.0708 8.42157 24.2748 8.26857 24.5018 8.14922C24.755 8.28242 24.8103 8.32527 24.9352 8.32527C25.1819 8.32527 25.3716 8.10297 25.3295 7.85766ZM10.1081 24.922C10.1149 25.1473 9.93366 25.3334 9.7082 25.3334H7.60002C6.71636 25.3334 6 24.617 6 23.7333V15.7332C6 14.8496 6.71636 14.1332 7.60002 14.1332H9.70005C9.92096 14.1332 10.1001 14.3127 10.1001 14.5336C10.0996 22.0667 10.087 24.2318 10.1081 24.922ZM8.75004 18.1333C8.75004 18.0272 8.7079 17.9254 8.63288 17.8504C8.55787 17.7754 8.45612 17.7333 8.35003 17.7333C8.24395 17.7333 8.1422 17.7754 8.06719 17.8504C7.99217 17.9254 7.95003 18.0272 7.95003 18.1333V19.8333C7.95003 19.9394 7.99217 20.0411 8.06719 20.1161C8.1422 20.1911 8.24395 20.2333 8.35003 20.2333C8.45612 20.2333 8.55787 20.1911 8.63288 20.1161C8.7079 20.0411 8.75004 19.9394 8.75004 19.8333V18.1333ZM26.0003 15.7332V23.7333C26.0003 24.617 25.2839 25.3334 24.4003 25.3334H22.2924C22.067 25.3334 21.8857 25.1472 21.8926 24.9219C21.9137 24.233 21.9007 22.0711 21.9002 14.5336C21.9002 14.3127 22.0793 14.1332 22.3002 14.1332H24.4003C25.284 14.1332 26.0003 14.8496 26.0003 15.7332ZM24.0503 18.1333C24.0503 18.0272 24.0081 17.9254 23.9331 17.8504C23.8581 17.7754 23.7563 17.7333 23.6503 17.7333C23.5442 17.7333 23.4424 17.7754 23.3674 17.8504C23.2924 17.9254 23.2503 18.0272 23.2503 18.1333V19.8333C23.2503 19.9394 23.2924 20.0411 23.3674 20.1161C23.4424 20.1911 23.5442 20.2333 23.6503 20.2333C23.7563 20.2333 23.8581 20.1911 23.9331 20.1161C24.0081 20.0411 24.0503 19.9394 24.0503 19.8333V18.1333ZM15.0001 25.3334H17.0002C17.1062 25.3334 17.208 25.2912 17.283 25.2162C17.358 25.1412 17.4002 25.0394 17.4002 24.9334V21.1833C17.4002 21.0772 17.358 20.9755 17.283 20.9005C17.208 20.8254 17.1062 20.7833 17.0002 20.7833H15.0001C14.894 20.7833 14.7923 20.8254 14.7173 20.9005C14.6423 20.9755 14.6001 21.0772 14.6001 21.1833V24.9334C14.6001 25.0394 14.6423 25.1412 14.7173 25.2162C14.7923 25.2912 14.894 25.3334 15.0001 25.3334ZM21.1002 10.0331V24.9334C21.1002 25.0394 21.0581 25.1412 20.9831 25.2162C20.908 25.2912 20.8063 25.3334 20.7002 25.3334H18.6002C18.4941 25.3334 18.3924 25.2912 18.3173 25.2162C18.2423 25.1412 18.2002 25.0394 18.2002 24.9334V20.3833C18.2002 20.2772 18.158 20.1755 18.083 20.1004C18.008 20.0254 17.9063 19.9833 17.8002 19.9833H14.2001C14.094 19.9833 13.9923 20.0254 13.9173 20.1004C13.8423 20.1755 13.8001 20.2772 13.8001 20.3833V24.9334C13.8001 25.0394 13.758 25.1412 13.683 25.2162C13.6079 25.2912 13.5062 25.3334 13.4001 25.3334H11.3001C11.194 25.3334 11.0922 25.2912 11.0172 25.2162C10.9422 25.1412 10.9001 25.0394 10.9001 24.9334V10.0331C10.9001 9.14948 11.6164 8.43312 12.5001 8.43312H19.5002C20.3839 8.43312 21.1002 9.14948 21.1002 10.0331ZM18.0002 16.7332C18.0002 16.6272 17.958 16.5254 17.883 16.4504C17.808 16.3754 17.7063 16.3332 17.6002 16.3332H14.4001C14.294 16.3332 14.1923 16.3754 14.1173 16.4504C14.0423 16.5254 14.0001 16.6272 14.0001 16.7332C14.0001 16.8393 14.0423 16.9411 14.1173 17.0161C14.1923 17.0911 14.294 17.1332 14.4001 17.1332H17.6002C17.7063 17.1332 17.808 17.0911 17.883 17.0161C17.958 16.9411 18.0002 16.8393 18.0002 16.7332ZM18.7002 12.8832C18.7002 12.7771 18.658 12.6754 18.583 12.6003C18.508 12.5253 18.4063 12.4832 18.3002 12.4832H13.7001C13.594 12.4832 13.4923 12.5253 13.4173 12.6003C13.3422 12.6754 13.3001 12.7771 13.3001 12.8832C13.3001 12.9893 13.3422 13.091 13.4173 13.166C13.4923 13.241 13.594 13.2832 13.7001 13.2832H18.3002C18.4063 13.2832 18.508 13.241 18.583 13.166C18.658 13.091 18.7002 12.9893 18.7002 12.8832Z" fill="white"/>
</svg>
