<svg width="16" height="17" viewBox="0 0 16 17" fill="none" xmlns="http://www.w3.org/2000/svg">
<g clip-path="url(#clip0_2937_166)">
<path d="M14.7307 2.39306C13.9025 1.49475 12.766 1 11.5304 1C10.6068 1 9.761 1.292 9.01634 1.86781C8.64062 2.15844 8.30016 2.51406 8 2.92906C7.69994 2.51416 7.35938 2.15844 6.98353 1.86781C6.239 1.292 5.39319 1 4.46959 1C3.234 1 2.09741 1.49475 1.26916 2.39306C0.450812 3.28087 0 4.49378 0 5.80847C0 7.16159 0.504281 8.40028 1.58691 9.70666C2.55541 10.8752 3.94737 12.0615 5.55931 13.4352C6.10975 13.9043 6.73366 14.436 7.38147 15.0024C7.55264 15.1524 7.77246 15.235 8 15.2349C8.22766 15.2349 8.44738 15.1523 8.61828 15.0027C9.26609 14.4362 9.89038 13.9042 10.441 13.4348C12.0528 12.0614 13.4447 10.8752 14.4132 9.70653C15.4958 8.40031 16 7.16162 16 5.80834C16 4.49378 15.5492 3.28087 14.7307 2.39306Z" fill="#B2B2B2"/>
</g>
<defs>
<clipPath id="clip0_2937_166">
<rect width="16" height="16.2348" fill="white"/>
</clipPath>
</defs>
</svg>
