<svg width="310" height="141" viewBox="0 0 310 141" fill="none" xmlns="http://www.w3.org/2000/svg">
<line y1="-0.5" x2="310" y2="-0.5" transform="matrix(-1 0 0 1 310 1)" stroke="#B2B2B2"/>
<line y1="-0.5" x2="290" y2="-0.5" transform="matrix(-1 8.74228e-08 8.74228e-08 1 310 21)" stroke="#B2B2B2"/>
<line y1="-0.5" x2="270" y2="-0.5" transform="matrix(-1 -8.74228e-08 -8.74228e-08 1 310 41.0001)" stroke="#B2B2B2"/>
<line y1="-0.5" x2="250" y2="-0.5" transform="matrix(-1 8.74228e-08 8.74228e-08 1 310 61.0001)" stroke="#B2B2B2"/>
<line y1="-0.5" x2="230" y2="-0.5" transform="matrix(-1 8.74228e-08 8.74228e-08 1 310 81.0001)" stroke="#B2B2B2"/>
<line y1="-0.5" x2="210" y2="-0.5" transform="matrix(-1 -8.74228e-08 -8.74228e-08 1 310 101)" stroke="#B2B2B2"/>
<line y1="-0.5" x2="190" y2="-0.5" transform="matrix(-1 -8.74228e-08 -8.74228e-08 1 310 121)" stroke="#B2B2B2"/>
<line y1="-0.5" x2="170" y2="-0.5" transform="matrix(-1 -8.74228e-08 -8.74228e-08 1 310 141)" stroke="#B2B2B2"/>
</svg>
