<svg width="310" height="140" viewBox="0 0 310 140" fill="none" xmlns="http://www.w3.org/2000/svg">
<line y1="-0.5" x2="290" y2="-0.5" transform="matrix(-1 8.74228e-08 8.74228e-08 1 310 20)" stroke="#B2B2B2"/>
<line y1="-0.5" x2="270" y2="-0.5" transform="matrix(-1 -8.74228e-08 -8.74228e-08 1 310 40.0001)" stroke="#B2B2B2"/>
<line y1="-0.5" x2="250" y2="-0.5" transform="matrix(-1 8.74228e-08 8.74228e-08 1 310 60.0001)" stroke="#B2B2B2"/>
<line y1="-0.5" x2="230" y2="-0.5" transform="matrix(-1 8.74228e-08 8.74228e-08 1 310 80.0001)" stroke="#B2B2B2"/>
<line y1="-0.5" x2="210" y2="-0.5" transform="matrix(-1 -8.74228e-08 -8.74228e-08 1 310 100)" stroke="#B2B2B2"/>
<line y1="-0.5" x2="190" y2="-0.5" transform="matrix(-1 -8.74228e-08 -8.74228e-08 1 310 120)" stroke="#B2B2B2"/>
<line y1="-0.5" x2="170" y2="-0.5" transform="matrix(-1 -8.74228e-08 -8.74228e-08 1 310 140)" stroke="#B2B2B2"/>
</svg>
