<svg width="336" height="222" viewBox="0 0 336 222" fill="none" xmlns="http://www.w3.org/2000/svg">
<g clip-path="url(#clip0_2931_322)">
<path d="M203.843 115.762C237.685 138.597 260.423 150.573 238.366 190.231L279.903 217.669C318.538 159.182 272.736 117.603 222.844 84.6462C172.948 51.6863 116.735 25.8775 78.1001 84.365L119.315 111.59C147.918 75.2225 170.282 93.1184 203.843 115.762ZM86.2792 116.775C96.396 123.458 104.414 129.624 112.86 120.909C114.005 119.722 115.163 118.285 116.335 116.512L74.7269 89.0269C64.9481 103.831 74.7901 109.185 86.2792 116.775ZM235.464 195.205L235.075 194.948C233.896 196.733 233.034 198.372 232.438 199.898C228.349 210.379 237.133 215.362 247.214 222.022C258.758 229.647 267.615 236.588 276.879 222.562L235.464 195.205Z" fill="#91B6D6"/>
<path d="M221.831 171.719L225.717 165.837C227.454 163.206 224.532 161.039 220.788 158.566L214.674 154.527C210.935 152.057 207.794 150.22 206.057 152.85L200.112 161.85L156.86 133.28L162.806 124.28C164.543 121.649 161.621 119.482 157.881 117.012L151.763 112.97C148.024 110.5 144.884 108.663 143.146 111.293L135.868 122.31C119.251 126.04 58.2183 148.328 53.561 152.831L30.3179 188.051C28.1699 191.303 29.0681 195.697 32.3198 197.845L189.597 301.738C192.849 303.886 197.243 302.988 199.391 299.736L222.767 264.348C224.991 258.459 221.535 193.6 218.441 176.85L221.831 171.719ZM111.227 197.728C110.448 197.243 109.775 196.606 109.247 195.856C108.718 195.107 108.345 194.259 108.15 193.362C107.954 192.466 107.94 191.539 108.108 190.638C108.277 189.736 108.624 188.877 109.13 188.111C109.635 187.346 110.289 186.689 111.052 186.181C111.816 185.672 112.673 185.321 113.575 185.149C114.476 184.977 115.402 184.988 116.299 185.18C117.196 185.371 118.046 185.741 118.798 186.267C120.266 187.293 121.275 188.851 121.611 190.611C121.947 192.37 121.582 194.191 120.595 195.685C119.608 197.179 118.076 198.229 116.326 198.611C114.576 198.993 112.747 198.676 111.227 197.728ZM124.213 178.068C123.435 177.583 122.762 176.947 122.233 176.197C121.705 175.447 121.332 174.599 121.136 173.702C120.941 172.806 120.927 171.88 121.095 170.978C121.263 170.076 121.61 169.217 122.116 168.452C122.622 167.686 123.276 167.03 124.039 166.521C124.802 166.012 125.66 165.662 126.561 165.49C127.462 165.318 128.389 165.328 129.286 165.52C130.183 165.712 131.033 166.081 131.785 166.607C133.253 167.633 134.262 169.192 134.598 170.951C134.933 172.71 134.569 174.531 133.582 176.025C132.594 177.52 131.063 178.57 129.313 178.951C127.563 179.333 125.733 179.016 124.213 178.068ZM137.197 158.413C136.419 157.927 135.746 157.291 135.217 156.541C134.689 155.791 134.316 154.943 134.12 154.047C133.925 153.15 133.911 152.224 134.079 151.322C134.247 150.42 134.594 149.561 135.1 148.796C135.606 148.03 136.26 147.374 137.023 146.865C137.786 146.357 138.644 146.006 139.545 145.834C140.446 145.662 141.373 145.672 142.27 145.864C143.167 146.056 144.017 146.426 144.769 146.951C146.237 147.977 147.246 149.536 147.582 151.295C147.917 153.054 147.553 154.875 146.566 156.37C145.578 157.864 144.047 158.914 142.297 159.296C140.547 159.677 138.717 159.36 137.197 158.413ZM134.818 213.312C134.04 212.827 133.367 212.19 132.838 211.44C132.31 210.69 131.937 209.842 131.741 208.946C131.546 208.05 131.532 207.123 131.7 206.221C131.868 205.32 132.216 204.461 132.721 203.695C133.227 202.93 133.881 202.273 134.644 201.765C135.408 201.256 136.265 200.905 137.166 200.733C138.067 200.561 138.994 200.572 139.891 200.763C140.788 200.955 141.638 201.325 142.39 201.85C143.858 202.876 144.867 204.435 145.203 206.194C145.538 207.954 145.174 209.775 144.187 211.269C143.2 212.763 141.668 213.813 139.918 214.195C138.168 214.577 136.338 214.26 134.818 213.312ZM147.805 193.652C147.027 193.167 146.353 192.531 145.825 191.781C145.296 191.031 144.923 190.183 144.728 189.286C144.532 188.39 144.518 187.464 144.687 186.562C144.855 185.66 145.202 184.801 145.708 184.036C146.213 183.27 146.867 182.614 147.631 182.105C148.394 181.596 149.252 181.245 150.153 181.074C151.054 180.902 151.98 180.912 152.878 181.104C153.775 181.296 154.624 181.665 155.376 182.191C156.844 183.217 157.854 184.775 158.189 186.535C158.525 188.294 158.16 190.115 157.173 191.609C156.186 193.104 154.654 194.154 152.904 194.535C151.155 194.917 149.325 194.6 147.805 193.652ZM160.789 173.997C160.011 173.511 159.337 172.875 158.809 172.125C158.28 171.375 157.907 170.527 157.712 169.631C157.516 168.734 157.502 167.808 157.67 166.906C157.839 166.004 158.186 165.145 158.692 164.38C159.197 163.614 159.851 162.958 160.615 162.449C161.378 161.94 162.236 161.59 163.137 161.418C164.038 161.246 164.964 161.256 165.861 161.448C166.759 161.64 167.608 162.009 168.36 162.535C169.828 163.561 170.838 165.12 171.173 166.879C171.509 168.638 171.144 170.459 170.157 171.954C169.17 173.448 167.638 174.498 165.888 174.879C164.138 175.261 162.309 174.944 160.789 173.997ZM158.41 228.896C156.89 227.892 155.83 226.324 155.466 224.539C155.101 222.754 155.46 220.897 156.464 219.376C157.469 217.856 159.036 216.797 160.821 216.432C162.606 216.067 164.463 216.426 165.984 217.43C167.504 218.435 168.563 220.002 168.928 221.787C169.293 223.572 168.934 225.43 167.93 226.95C166.925 228.47 165.358 229.53 163.573 229.895C161.788 230.259 159.931 229.9 158.41 228.896ZM171.397 209.236C169.876 208.232 168.817 206.665 168.452 204.879C168.087 203.094 168.446 201.237 169.451 199.717C170.455 198.196 172.022 197.137 173.808 196.772C175.593 196.407 177.45 196.766 178.97 197.771C180.491 198.775 181.55 200.342 181.915 202.128C182.28 203.913 181.921 205.77 180.916 207.29C179.912 208.811 178.345 209.87 176.559 210.235C174.774 210.6 172.917 210.241 171.397 209.236ZM184.381 189.58C182.86 188.576 181.801 187.009 181.436 185.224C181.071 183.438 181.43 181.581 182.435 180.061C183.439 178.54 185.006 177.481 186.792 177.116C188.577 176.751 190.434 177.111 191.954 178.115C193.475 179.119 194.534 180.686 194.899 182.472C195.264 184.257 194.905 186.114 193.9 187.635C192.896 189.155 191.329 190.214 189.543 190.579C187.758 190.944 185.901 190.585 184.381 189.58Z" fill="#91B6D6"/>
</g>
<defs>
<clipPath id="clip0_2931_322">
<rect width="242.275" height="242.275" fill="white" transform="translate(133.535) rotate(33.4475)"/>
</clipPath>
</defs>
</svg>
