<svg width="60" height="60" viewBox="0 0 60 60" fill="none" xmlns="http://www.w3.org/2000/svg">
<g clip-path="url(#clip0_2676_4950)">
<path fill-rule="evenodd" clip-rule="evenodd" d="M18.0175 12.1975C19.4237 10.7909 21.331 10.0004 23.32 10H32.5C33.163 10 33.7989 10.2634 34.2678 10.7322C34.7366 11.2011 35 11.837 35 12.5C35 13.163 34.7366 13.7989 34.2678 14.2678C33.7989 14.7366 33.163 15 32.5 15H23.32C22.657 15.0001 22.0212 15.2636 21.5525 15.7325L19.4825 17.8025C18.0763 19.2091 16.169 19.9996 14.18 20H10C9.33696 20 8.70107 20.2634 8.23223 20.7322C7.76339 21.2011 7.5 21.837 7.5 22.5V47.5C7.5 48.163 7.76339 48.7989 8.23223 49.2678C8.70107 49.7366 9.33696 50 10 50H45C45.663 50 46.2989 49.7366 46.7678 49.2678C47.2366 48.7989 47.5 48.163 47.5 47.5V30C47.5 29.337 47.7634 28.7011 48.2322 28.2322C48.7011 27.7634 49.337 27.5 50 27.5C50.663 27.5 51.2989 27.7634 51.7678 28.2322C52.2366 28.7011 52.5 29.337 52.5 30V47.5C52.5 49.4891 51.7098 51.3968 50.3033 52.8033C48.8968 54.2098 46.9891 55 45 55H10C8.01088 55 6.10322 54.2098 4.6967 52.8033C3.29018 51.3968 2.5 49.4891 2.5 47.5V22.5C2.5 20.5109 3.29018 18.6032 4.6967 17.1967C6.10322 15.7902 8.01088 15 10 15H14.18C14.843 14.9999 15.4788 14.7364 15.9475 14.2675L18.0175 12.1975Z" fill="#E7E7E7"/>
<path fill-rule="evenodd" clip-rule="evenodd" d="M15 35C15 31.6848 16.317 28.5054 18.6612 26.1612C21.0054 23.817 24.1848 22.5 27.5 22.5C30.8152 22.5 33.9946 23.817 36.3388 26.1612C38.683 28.5054 40 31.6848 40 35C40 38.3152 38.683 41.4946 36.3388 43.8388C33.9946 46.183 30.8152 47.5 27.5 47.5C24.1848 47.5 21.0054 46.183 18.6612 43.8388C16.317 41.4946 15 38.3152 15 35ZM27.5 27.5C26.5151 27.5 25.5398 27.694 24.6299 28.0709C23.7199 28.4478 22.8931 29.0003 22.1967 29.6967C21.5003 30.3931 20.9478 31.2199 20.5709 32.1299C20.194 33.0398 20 34.0151 20 35C20 35.9849 20.194 36.9602 20.5709 37.8701C20.9478 38.7801 21.5003 39.6069 22.1967 40.3033C22.8931 40.9997 23.7199 41.5522 24.6299 41.9291C25.5398 42.306 26.5151 42.5 27.5 42.5C29.4891 42.5 31.3968 41.7098 32.8033 40.3033C34.2098 38.8968 35 36.9891 35 35C35 33.0109 34.2098 31.1032 32.8033 29.6967C31.3968 28.2902 29.4891 27.5 27.5 27.5ZM40 12.5C40 11.837 40.2634 11.2011 40.7322 10.7322C41.2011 10.2634 41.837 10 42.5 10H57.5C58.163 10 58.7989 10.2634 59.2678 10.7322C59.7366 11.2011 60 11.837 60 12.5C60 13.163 59.7366 13.7989 59.2678 14.2678C58.7989 14.7366 58.163 15 57.5 15H42.5C41.837 15 41.2011 14.7366 40.7322 14.2678C40.2634 13.7989 40 13.163 40 12.5Z" fill="#E7E7E7"/>
<path fill-rule="evenodd" clip-rule="evenodd" d="M50 2.5C50.663 2.5 51.2989 2.76339 51.7678 3.23223C52.2366 3.70107 52.5 4.33696 52.5 5V20C52.5 20.663 52.2366 21.2989 51.7678 21.7678C51.2989 22.2366 50.663 22.5 50 22.5C49.337 22.5 48.7011 22.2366 48.2322 21.7678C47.7634 21.2989 47.5 20.663 47.5 20V5C47.5 4.33696 47.7634 3.70107 48.2322 3.23223C48.7011 2.76339 49.337 2.5 50 2.5Z" fill="#E7E7E7"/>
</g>
<defs>
<clipPath id="clip0_2676_4950">
<rect width="60" height="60" fill="white"/>
</clipPath>
</defs>
</svg>
