<svg width="32" height="32" viewBox="0 0 32 32" fill="none" xmlns="http://www.w3.org/2000/svg">
<path d="M23.4 14.84C23.119 15.1214 22.7377 15.2797 22.34 15.28H20.22C19.8222 15.28 19.4406 15.122 19.1593 14.8407C18.878 14.5594 18.72 14.1778 18.72 13.78V11.66C18.7204 11.2623 18.8786 10.881 19.16 10.6L23.23 6.52001L23 6.50001H5C4.33696 6.50001 3.70107 6.7634 3.23223 7.23224C2.76339 7.70108 2.5 8.33697 2.5 9.00001V22C2.5 22.663 2.76339 23.2989 3.23223 23.7678C3.70107 24.2366 4.33696 24.5 5 24.5H5.49L7.07 27.25C7.11218 27.3272 7.17436 27.3916 7.25002 27.4365C7.32568 27.4814 7.41203 27.5051 7.5 27.5051C7.58797 27.5051 7.67432 27.4814 7.74998 27.4365C7.82564 27.3916 7.88782 27.3272 7.93 27.25L9.51 24.5H23C23.663 24.5 24.2989 24.2366 24.7678 23.7678C25.2366 23.2989 25.5 22.663 25.5 22V12.74L23.4 14.84ZM7 11H15C15.1326 11 15.2598 11.0527 15.3536 11.1465C15.4473 11.2402 15.5 11.3674 15.5 11.5C15.5 11.6326 15.4473 11.7598 15.3536 11.8536C15.2598 11.9473 15.1326 12 15 12H7C6.86739 12 6.74021 11.9473 6.64645 11.8536C6.55268 11.7598 6.5 11.6326 6.5 11.5C6.5 11.3674 6.55268 11.2402 6.64645 11.1465C6.74021 11.0527 6.86739 11 7 11ZM7 15H15C15.1326 15 15.2598 15.0527 15.3536 15.1465C15.4473 15.2402 15.5 15.3674 15.5 15.5C15.5 15.6326 15.4473 15.7598 15.3536 15.8536C15.2598 15.9473 15.1326 16 15 16H7C6.86739 16 6.74021 15.9473 6.64645 15.8536C6.55268 15.7598 6.5 15.6326 6.5 15.5C6.5 15.3674 6.55268 15.2402 6.64645 15.1465C6.74021 15.0527 6.86739 15 7 15ZM21 20H7C6.86739 20 6.74021 19.9473 6.64645 19.8536C6.55268 19.7598 6.5 19.6326 6.5 19.5C6.5 19.3674 6.55268 19.2402 6.64645 19.1465C6.74021 19.0527 6.86739 19 7 19H21C21.1326 19 21.2598 19.0527 21.3536 19.1465C21.4473 19.2402 21.5 19.3674 21.5 19.5C21.5 19.6326 21.4473 19.7598 21.3536 19.8536C21.2598 19.9473 21.1326 20 21 20ZM28.91 5.09001C29.2825 5.46473 29.4916 5.97164 29.4916 6.50001C29.4916 7.02838 29.2825 7.53528 28.91 7.91001L22.7 14.13C22.6535 14.1783 22.5975 14.2166 22.5356 14.2424C22.4736 14.2682 22.4071 14.281 22.34 14.28H20.22C20.0882 14.2774 19.9625 14.2239 19.8693 14.1307C19.7761 14.0375 19.7226 13.9118 19.72 13.78V11.66C19.719 11.5929 19.7318 11.5264 19.7576 11.4644C19.7834 11.4025 19.8217 11.3465 19.87 11.3L26.09 5.09001C26.4647 4.71751 26.9716 4.50842 27.5 4.50842C28.0284 4.50842 28.5353 4.71751 28.91 5.09001Z" fill="#236DAC"/>
</svg>
