<svg width="103" height="87" viewBox="0 0 103 87" fill="none" xmlns="http://www.w3.org/2000/svg">
<path d="M13.8 85.08L71.16 1.08H88.44L31.08 85.08H13.8ZM21.48 46.56C17.4 46.56 13.72 45.64 10.44 43.8C7.16 41.96 4.6 39.32 2.76 35.88C0.92 32.36 0 28.16 0 23.28C0 18.4 0.92 14.24 2.76 10.8C4.6 7.36 7.16 4.72 10.44 2.88C13.72 0.96 17.4 0 21.48 0C25.64 0 29.32 0.96 32.52 2.88C35.8 4.72 38.36 7.36 40.2 10.8C42.12 14.24 43.08 18.4 43.08 23.28C43.08 28.08 42.12 32.24 40.2 35.76C38.36 39.28 35.8 41.96 32.52 43.8C29.32 45.64 25.64 46.56 21.48 46.56ZM21.6 35.16C23.6 35.16 25.24 34.24 26.52 32.4C27.88 30.56 28.56 27.52 28.56 23.28C28.56 19.04 27.88 16 26.52 14.16C25.24 12.32 23.6 11.4 21.6 11.4C19.6 11.4 17.88 12.32 16.44 14.16C15.08 16 14.4 19.04 14.4 23.28C14.4 27.52 15.08 30.56 16.44 32.4C17.88 34.24 19.6 35.16 21.6 35.16ZM80.76 86.16C76.6 86.16 72.88 85.24 69.6 83.4C66.4 81.56 63.88 78.92 62.04 75.48C60.2 71.96 59.28 67.76 59.28 62.88C59.28 58 60.2 53.84 62.04 50.4C63.88 46.96 66.4 44.32 69.6 42.48C72.88 40.56 76.6 39.6 80.76 39.6C84.92 39.6 88.6 40.56 91.8 42.48C95.08 44.32 97.64 46.96 99.48 50.4C101.4 53.84 102.36 58 102.36 62.88C102.36 67.76 101.4 71.96 99.48 75.48C97.64 78.92 95.08 81.56 91.8 83.4C88.6 85.24 84.92 86.16 80.76 86.16ZM80.76 74.76C82.76 74.76 84.44 73.84 85.8 72C87.16 70.16 87.84 67.12 87.84 62.88C87.84 58.64 87.16 55.6 85.8 53.76C84.44 51.92 82.76 51 80.76 51C78.84 51 77.16 51.92 75.72 53.76C74.36 55.6 73.68 58.64 73.68 62.88C73.68 67.12 74.36 70.16 75.72 72C77.16 73.84 78.84 74.76 80.76 74.76Z" fill="#91B6D6"/>
</svg>
