<svg width="24" height="24" viewBox="0 0 24 24" fill="none" xmlns="http://www.w3.org/2000/svg">
<path d="M19.7453 16.1573C22.7512 13.1514 22.7511 8.26036 19.7453 5.25444C16.7394 2.24852 11.8484 2.24852 8.84256 5.25444C6.29245 7.80455 5.90623 11.5972 7.68288 14.5589C7.68288 14.5589 7.81049 14.773 7.63814 14.9452L3.70481 18.8785C2.92192 19.6614 2.73555 20.7561 3.42981 21.4505L3.54935 21.5699C4.24362 22.2643 5.33836 22.0779 6.12119 21.295L10.0463 17.37C10.2269 17.1894 10.4409 17.317 10.4409 17.317C13.4025 19.0936 17.1952 18.7074 19.7453 16.1573ZM10.2659 14.7339C8.04479 12.5129 8.04485 8.89899 10.2659 6.67792C12.487 4.45692 16.1009 4.45686 18.3219 6.67792C20.5429 8.89893 20.5429 12.5129 18.3219 14.7339C16.1008 16.9549 12.487 16.9549 10.2659 14.7339Z" fill="white"/>
<path d="M10.7585 10.2484C10.6551 10.2484 10.55 10.2281 10.4487 10.1853C10.0441 10.0141 9.85474 9.54719 10.026 9.14249C11.1024 6.5988 14.0475 5.40509 16.5911 6.48147C16.9957 6.65273 17.185 7.11961 17.0138 7.52431C16.8425 7.92901 16.3757 8.1182 15.9709 7.947C14.2354 7.21264 12.2259 8.02712 11.4916 9.76257C11.3631 10.0661 11.0685 10.2484 10.7585 10.2484Z" fill="white"/>
</svg>
