<svg width="32" height="32" viewBox="0 0 32 32" fill="none" xmlns="http://www.w3.org/2000/svg">
<path fill-rule="evenodd" clip-rule="evenodd" d="M29.1628 17.8078C29.5359 17.3333 30 16.7428 30 16C30 15.2572 29.5359 14.6667 29.1628 14.1923C28.9714 13.9488 28.7332 13.6457 28.6992 13.4739C28.6617 13.2843 28.7642 12.9176 28.8547 12.5939L28.8549 12.5933C29.0233 11.9912 29.2141 11.3088 28.9372 10.6408C28.6558 9.96223 28.0317 9.61217 27.4811 9.30341C27.1931 9.14186 26.8666 8.95877 26.7651 8.80723C26.6611 8.65182 26.6158 8.2772 26.5757 7.94655L26.5757 7.94612C26.5003 7.32262 26.4149 6.61595 25.8998 6.1008C25.3847 5.58565 24.6779 5.50016 24.0544 5.42475C23.7237 5.38477 23.3488 5.33938 23.1934 5.23531C23.0419 5.13389 22.8588 4.80739 22.6972 4.51928L22.6971 4.51923L22.6971 4.51912C22.3883 3.96853 22.0383 3.34444 21.3597 3.06296C20.6917 2.78597 20.0092 2.97666 19.407 3.1451L19.4065 3.14524L19.4065 3.14525C19.0827 3.23577 18.7158 3.33835 18.5262 3.30074C18.3544 3.26678 18.0513 3.0285 17.8078 2.8371C17.3333 2.46413 16.7428 2 16 2C15.2572 2 14.6667 2.46413 14.1923 2.83716C13.9488 3.02856 13.6457 3.26678 13.4739 3.3008C13.2843 3.33826 12.9172 3.23572 12.5933 3.1451C11.9912 2.97661 11.3087 2.78591 10.6408 3.0628C9.96223 3.34422 9.61217 3.96826 9.30341 4.51885C9.14186 4.80695 8.95877 5.13343 8.80723 5.23487C8.65182 5.3389 8.27719 5.38424 7.94654 5.42426L7.94612 5.42431C7.32262 5.49967 6.61595 5.58509 6.1008 6.1002C5.58565 6.61535 5.50016 7.32208 5.42475 7.94557C5.38477 8.27632 5.33938 8.6512 5.23531 8.80662C5.13388 8.95814 4.80737 9.14126 4.51926 9.30284L4.51912 9.30291C3.96853 9.61168 3.34444 9.96173 3.06296 10.6403C2.78591 11.3084 2.97672 11.9908 3.1451 12.593L3.14526 12.5935C3.23573 12.9173 3.33824 13.2842 3.30074 13.4738C3.26678 13.6456 3.02852 13.9487 2.83712 14.1922L2.8371 14.1922C2.46413 14.6667 2 15.2572 2 16C2 16.7428 2.46413 17.3333 2.83716 17.8077C3.02856 18.0512 3.26678 18.3543 3.3008 18.5261C3.33834 18.7157 3.2358 19.0824 3.14528 19.4061L3.1451 19.4067C2.97666 20.0088 2.78586 20.6912 3.0628 21.3592C3.34422 22.0378 3.96826 22.3878 4.51885 22.6966C4.80695 22.8581 5.13343 23.0412 5.23487 23.1928C5.3389 23.3482 5.38424 23.7228 5.42426 24.0535L5.42431 24.0539C5.49967 24.6774 5.58509 25.384 6.1002 25.8992C6.61535 26.4144 7.32208 26.4998 7.94557 26.5753C8.27632 26.6152 8.6512 26.6606 8.80662 26.7647C8.95814 26.8661 9.14126 27.1926 9.30284 27.4808L9.30291 27.4809C9.61168 28.0315 9.96173 28.6556 10.6403 28.937C11.3083 29.214 11.9908 29.0233 12.593 28.8549C12.9169 28.7643 13.2843 28.6618 13.4738 28.6993C13.6456 28.7332 13.9487 28.9715 14.1922 29.1629C14.6667 29.5359 15.2572 30 16 30C16.7428 30 17.3333 29.5359 17.8077 29.1628C18.0512 28.9714 18.3543 28.7332 18.5261 28.6992C18.7156 28.6618 19.0828 28.7643 19.4067 28.8549C20.0089 29.0234 20.6913 29.2141 21.3592 28.9372C22.0378 28.6558 22.3878 28.0317 22.6966 27.4811C22.8581 27.1931 23.0412 26.8666 23.1928 26.7651C23.3482 26.6611 23.7228 26.6158 24.0534 26.5757L24.0539 26.5757C24.6774 26.5003 25.384 26.4149 25.8992 25.8998C26.4144 25.3847 26.4998 24.6779 26.5753 24.0544C26.6152 23.7237 26.6606 23.3488 26.7647 23.1934C26.8661 23.0419 27.1926 22.8587 27.4808 22.6971L27.4809 22.6971C28.0315 22.3883 28.6556 22.0383 28.937 21.3597C29.2141 20.6916 29.0233 20.0092 28.8549 19.407L28.8547 19.4064C28.7643 19.0827 28.6618 18.7158 28.6993 18.5262C28.7332 18.3544 28.9714 18.0513 29.1628 17.8078ZM22.4343 14.9344C22.3929 15.1097 22.3049 15.2694 22.1806 15.395L19.9166 17.6986C19.8691 17.747 19.8335 17.8066 19.8129 17.8725C19.7924 17.9384 19.7875 18.0085 19.7987 18.0768L20.333 21.3293C20.3572 21.4675 20.3516 21.6096 20.3166 21.7452C20.2817 21.8809 20.2182 22.0067 20.1309 22.1136C19.9526 22.3346 19.6933 22.4615 19.4198 22.4615C19.2695 22.4614 19.1214 22.4228 18.9887 22.3489L16.1902 20.8131C16.1312 20.7817 16.066 20.7653 15.9998 20.7653C15.9335 20.7653 15.8683 20.7817 15.8093 20.8131L13.011 22.3489C12.626 22.5601 12.1444 22.4559 11.8686 22.1136C11.7813 22.0067 11.7179 21.8809 11.6829 21.7452C11.6479 21.6096 11.6423 21.4675 11.6665 21.3293L12.2006 18.0768C12.2234 17.9385 12.1791 17.797 12.0826 17.6986L9.81868 15.3952C9.69433 15.2696 9.60638 15.11 9.56492 14.9347C9.52346 14.7593 9.53015 14.5753 9.58424 14.4037C9.6371 14.2317 9.73534 14.0786 9.86769 13.9621C10.0001 13.8457 10.1612 13.7705 10.3326 13.7452L13.4615 13.2707C13.5948 13.2504 13.7102 13.1632 13.7697 13.037L15.1689 10.0776C15.2449 9.91533 15.3631 9.77872 15.5101 9.68337C15.657 9.58802 15.8267 9.5378 15.9998 9.53846C16.1728 9.53775 16.3426 9.58795 16.4896 9.6833C16.6366 9.77865 16.7549 9.91529 16.8309 10.0776L18.2298 13.0368C18.2591 13.0989 18.3025 13.1526 18.3561 13.1933C18.4097 13.234 18.4721 13.2604 18.5377 13.2704L21.6667 13.745C21.8381 13.7702 21.9992 13.8454 22.1316 13.9619C22.2639 14.0783 22.3622 14.2314 22.415 14.4035C22.4691 14.575 22.4758 14.759 22.4343 14.9344Z" fill="#4E4E4E"/>
</svg>
