<svg width="48" height="48" viewBox="0 0 48 48" fill="none" xmlns="http://www.w3.org/2000/svg">
<path d="M21.188 17.5969C21.188 16.8202 21.8176 16.1906 22.5943 16.1906C23.3709 16.1906 24.0005 16.8202 24.0005 17.5969V25.6415C24.0241 25.6331 24.0476 25.6242 24.0714 25.6162L29.6589 23.7538V14.9981C29.6589 12.4398 27.5775 10.3585 25.0193 10.3585H8.85248C6.29414 10.3585 4.21289 12.4399 4.21289 14.9981V36.8234C4.21289 38.8916 5.57339 40.6475 7.44623 41.2446V42.8859C7.44623 43.6626 8.07586 44.2922 8.85248 44.2922C9.62911 44.2922 10.2587 43.6626 10.2587 42.8859V41.463H22.5675C21.6744 39.4117 21.1869 37.159 21.1869 34.8179L21.188 17.5969ZM12.6838 34.3984C12.6838 35.175 12.0541 35.8046 11.2775 35.8046C10.5009 35.8046 9.87126 35.175 9.87126 34.3984V17.5969C9.87126 16.8202 10.5009 16.1906 11.2775 16.1906C12.0541 16.1906 12.6838 16.8202 12.6838 17.5969V34.3984ZM18.3421 34.3984C18.3421 35.175 17.7125 35.8046 16.9359 35.8046C16.1593 35.8046 15.5296 35.175 15.5296 34.3984V17.5969C15.5296 16.8202 16.1593 16.1906 16.9359 16.1906C17.7125 16.1906 18.3421 16.8202 18.3421 17.5969V34.3984ZM14.116 2.8125H19.7559V7.54603H22.5684V2.80322C22.5683 1.25756 21.3108 0 19.7651 0H14.1067C12.561 0 11.3035 1.25756 11.3035 2.80322V7.54594H14.116V2.8125Z" fill="#FBA841"/>
<path d="M42.8252 28.2844L34.3375 25.4552C34.0489 25.359 33.7368 25.359 33.4482 25.4552L24.9606 28.2844C24.6806 28.3777 24.4371 28.5568 24.2645 28.7962C24.0919 29.0356 23.999 29.3233 23.999 29.6184V34.8177C23.9964 37.7188 24.9079 40.5469 26.6042 42.9003C28.3005 45.2538 30.6953 47.0129 33.4483 47.9277C33.7369 48.0239 34.049 48.0239 34.3376 47.9277C37.0906 47.0129 39.4853 45.2538 41.1816 42.9003C42.8779 40.5469 43.7894 37.7188 43.7867 34.8177V29.6184C43.7867 29.3233 43.6939 29.0356 43.5213 28.7962C43.3487 28.5568 43.1052 28.3777 42.8252 28.2844ZM37.9107 36.3492L32.8352 39.4366C32.6153 39.5707 32.3628 39.6416 32.1053 39.6415C31.8849 39.6418 31.6675 39.5901 31.4707 39.4908C31.2739 39.3915 31.1033 39.2472 30.9725 39.0698L29.4739 37.0374C29.013 36.4123 29.1461 35.5319 29.7711 35.071C30.3962 34.6101 31.2767 34.7431 31.7375 35.3683L32.4726 36.3652L36.449 33.9464C37.1125 33.5428 37.9775 33.7535 38.3813 34.417C38.7849 35.0805 38.5742 35.9456 37.9107 36.3492Z" fill="#FBA841"/>
</svg>
