<svg width="24" height="24" viewBox="0 0 24 24" fill="none" xmlns="http://www.w3.org/2000/svg">
<path d="M12 3C7.02943 3 3 7.02943 3 12C3 16.9706 7.02943 21 12 21C16.9706 21 21 16.9706 21 12C21 7.02943 16.9706 3 12 3ZM10.8916 6.95813C10.8916 6.66522 11.008 6.38432 11.2151 6.1772C11.4222 5.97009 11.7031 5.85373 11.996 5.85373C12.2889 5.85373 12.5698 5.97009 12.7769 6.1772C12.9841 6.38431 13.1004 6.66522 13.1004 6.95813V13.3525C13.1004 13.6454 12.9841 13.9263 12.7769 14.1335C12.5698 14.3406 12.2889 14.4569 11.996 14.4569C11.7031 14.4569 11.4222 14.3406 11.2151 14.1334C11.008 13.9263 10.8916 13.6454 10.8916 13.3525V6.95813ZM12.9684 17.7421C12.745 17.9625 12.4523 18.0986 12.1399 18.1274C11.8275 18.1562 11.5148 18.076 11.2549 17.9002C10.995 17.7245 10.804 17.4642 10.7144 17.1636C10.6248 16.8629 10.6421 16.5405 10.7633 16.2512C10.8846 15.9618 11.1023 15.7234 11.3795 15.5765C11.6567 15.4296 11.9762 15.3832 12.2837 15.4453C12.5912 15.5073 12.8677 15.674 13.0662 15.9169C13.2647 16.1599 13.373 16.464 13.3725 16.7778C13.374 16.9575 13.339 17.1357 13.2695 17.3014C13.2 17.4672 13.0976 17.6171 12.9684 17.7421V17.7421Z" fill="#2A2D30"/>
</svg>
