<svg width="32" height="32" viewBox="0 0 32 32" fill="none" xmlns="http://www.w3.org/2000/svg">
<path d="M27.5994 5.61793H25.5992V4.81727C25.5992 4.3822 25.2364 4.01662 24.7995 4.01662H23.9982C23.7866 4.01898 23.5843 4.10414 23.4348 4.25383C23.2853 4.40351 23.2005 4.60579 23.1985 4.81727V5.61793H21.9996V4.80065C21.9996 4.36407 21.6368 4 21.1999 4H20.3986C19.9632 4 19.5989 4.36407 19.5989 4.80065V5.61642H12.3981V4.80065C12.3965 4.5888 12.3116 4.38606 12.1617 4.23625C12.0118 4.08644 11.8089 4.00158 11.5968 4H10.7971C10.5856 4.00198 10.3834 4.08712 10.2343 4.23697C10.0852 4.38682 10.0012 4.58933 10.0004 4.80065V5.61642H8.79849V4.80065C8.79849 4.36407 8.43565 4 7.99723 4H7.19748C6.76208 4 6.39773 4.36407 6.39773 4.80065V5.61642H4.37795C4.27632 5.62253 4.1808 5.66694 4.11065 5.74067C4.04051 5.81441 4.00096 5.91199 4 6.01372V27.5982C4 27.8187 4.17839 27.9985 4.39912 28H27.5994C27.6521 28 27.7043 27.9896 27.753 27.9694C27.8017 27.9492 27.846 27.9195 27.8832 27.8822C27.9204 27.8449 27.9499 27.8006 27.9699 27.7518C27.99 27.7031 28.0002 27.6509 28 27.5982V6.01372C27.9988 5.90834 27.9561 5.80767 27.8811 5.73357C27.8061 5.65947 27.7048 5.61792 27.5994 5.61793ZM7.19748 4.80065H7.99874V5.61642H7.19748V4.80065ZM10.7971 4.80065H11.5984V5.61642H10.7971V4.80065ZM20.4001 4.80065H21.2014V5.61642H20.4001V4.80065ZM23.9982 4.81878H24.7995V5.61793H23.9982V4.81878ZM4.79824 6.41707H6.39773V7.1996C6.39773 7.63467 6.76057 7.99874 7.19899 7.99874H7.99723C8.54299 8.01083 8.54299 7.18751 7.99723 7.19809H7.19748V6.41707H10.0019V7.1996C10.0019 7.63467 10.3617 7.99874 10.7986 7.99874H11.5999C12.1441 8.01083 12.1441 7.18751 11.5999 7.19809H10.7986V6.41707H19.6004V7.1996C19.6004 7.63467 19.9647 7.99874 20.4016 7.99874H21.2029C21.7471 8.01083 21.7471 7.18751 21.2029 7.19809H20.4016V6.41707H23.2V7.21621C23.2 7.6528 23.5643 8.01687 24.0013 8.01687H24.801C25.3347 8.01687 25.3347 7.21621 24.801 7.21621H23.9997V6.41556H27.2018V8.81601H4.79672L4.79824 6.41707ZM15.9887 10.8071C16.0423 10.8061 16.0956 10.8158 16.1454 10.8358C16.1951 10.8557 16.2404 10.8854 16.2785 10.9232C16.3165 10.961 16.3466 11.006 16.367 11.0556C16.3873 11.1052 16.3975 11.1583 16.3968 11.2119V12.8102C16.4089 13.3541 15.585 13.3541 15.5971 12.8102V11.2119C15.5959 11.1063 15.6365 11.0044 15.7102 10.9286C15.7838 10.8527 15.8844 10.8091 15.9902 10.8071H15.9887ZM11.3081 12.9341L12.4147 14.0882C12.8184 14.4735 12.2061 15.0611 11.8372 14.6427L10.7291 13.487C10.4902 13.2453 10.6444 12.8344 11.0042 12.8072C11.0609 12.8064 11.1171 12.8172 11.1694 12.8391C11.2217 12.8609 11.2689 12.8932 11.3081 12.9341ZM20.961 12.8072C21.0415 12.8031 21.1214 12.8233 21.1902 12.8653C21.2591 12.9072 21.3136 12.9689 21.3468 13.0424C21.3799 13.1158 21.3901 13.1975 21.3761 13.2769C21.362 13.3562 21.3243 13.4294 21.2679 13.487L20.1597 14.6427C19.7909 15.0445 19.1952 14.475 19.5822 14.0882L20.6889 12.9341C20.7599 12.8586 20.8567 12.8132 20.961 12.8072ZM16.0008 13.774C17.2293 13.7764 18.4068 14.2655 19.2752 15.134C20.1435 16.0025 20.6317 17.1796 20.6329 18.4073C20.6317 19.6346 20.1434 20.8114 19.275 21.6794C18.4066 22.5475 17.2291 23.0359 16.0008 23.0375C14.7716 23.0367 13.593 22.5487 12.7235 21.6807C11.854 20.8127 11.3645 19.6354 11.3625 18.4073C11.3645 17.1792 11.8537 16.002 12.7229 15.1338C13.592 14.2656 14.7703 13.7771 15.9992 13.7755L16.0008 13.774ZM8.79849 18.0084H10.398C10.9211 18.0205 10.9211 18.7955 10.398 18.8076H8.79849C8.25272 18.8197 8.25272 17.9963 8.79849 18.0069V18.0084ZM21.599 18.0084H23.1985C23.7201 18.0205 23.7201 18.7955 23.1985 18.8076H21.599C21.0547 18.8197 21.0547 17.9963 21.599 18.0069V18.0084ZM20.1597 22.1749L21.2679 23.3275C21.664 23.7127 21.0562 24.2913 20.6889 23.8789L19.5822 22.7263C19.3434 22.4845 19.4976 22.0736 19.8559 22.0465C19.9126 22.0458 19.9689 22.0569 20.0212 22.079C20.0735 22.1011 20.1207 22.1337 20.1597 22.1749ZM12.1078 22.0465C12.1884 22.0423 12.2682 22.0626 12.3371 22.1045C12.4059 22.1465 12.4604 22.2082 12.4936 22.2816C12.5268 22.3551 12.537 22.4368 12.5229 22.5161C12.5088 22.5954 12.4711 22.6687 12.4147 22.7263L11.3081 23.8789C10.9392 24.2656 10.3617 23.7127 10.7291 23.3275L11.8372 22.1749C11.9068 22.0993 12.0035 22.054 12.1094 22.048L12.1078 22.0465ZM15.9902 23.5994C16.0438 23.5984 16.0971 23.6082 16.1469 23.6281C16.1967 23.6481 16.2419 23.6778 16.28 23.7156C16.3181 23.7533 16.3482 23.7983 16.3685 23.8479C16.3888 23.8975 16.399 23.9507 16.3984 24.0043V25.6026C16.4105 26.1464 15.5865 26.1464 15.5986 25.6026V24.0043C15.5974 23.8986 15.638 23.7968 15.7117 23.7209C15.7853 23.6451 15.8844 23.6014 15.9902 23.5994Z" fill="#4E4E4E"/>
</svg>
